<?xml version="1.0" encoding="UTF-8" standalone="no"?>
<!-- Created with Inkscape (http://www.inkscape.org/) -->

<svg
   xmlns:dc="http://purl.org/dc/elements/1.1/"
   xmlns:cc="http://creativecommons.org/ns#"
   xmlns:rdf="http://www.w3.org/1999/02/22-rdf-syntax-ns#"
   xmlns:svg="http://www.w3.org/2000/svg"
   xmlns="http://www.w3.org/2000/svg"
   xmlns:sodipodi="http://sodipodi.sourceforge.net/DTD/sodipodi-0.dtd"
   xmlns:inkscape="http://www.inkscape.org/namespaces/inkscape"
   width="3.5433071"
   height="3.5433071"
   id="svg3010"
   version="1.1"
   inkscape:version="0.48.4 r9939"
   sodipodi:docname="New document 1">
  <defs
     id="defs3012" />
  <sodipodi:namedview
     id="base"
     pagecolor="#ffffff"
     bordercolor="#666666"
     borderopacity="1.0"
     inkscape:pageopacity="0.0"
     inkscape:pageshadow="2"
     inkscape:zoom="179.2"
     inkscape:cx="1.1867229"
     inkscape:cy="1.9903592"
     inkscape:document-units="px"
     inkscape:current-layer="layer1"
     showgrid="false"
     units="mm"
     inkscape:window-width="1916"
     inkscape:window-height="1177"
     inkscape:window-x="0"
     inkscape:window-y="19"
     inkscape:window-maximized="1" />
  <metadata
     id="metadata3015">
    <rdf:RDF>
      <cc:Work
         rdf:about="">
        <dc:format>image/svg+xml</dc:format>
        <dc:type
           rdf:resource="http://purl.org/dc/dcmitype/StillImage" />
        <dc:title></dc:title>
      </cc:Work>
    </rdf:RDF>
  </metadata>
  <g
     inkscape:label="Layer 1"
     inkscape:groupmode="layer"
     id="layer1"
     transform="translate(0,-1048.8189)">
    <g
       id="g3031"
       transform="matrix(0.00204317,0,0,0.00204317,0.59986739,1049.207)">
      <path
         style="fill:#f7e898"
         d="m -42.416796,1360.75 c -37.039357,-61.1152 -69.608334,-128.4866 -57.375259,-204.5288 3.4342,-171.17119 3.594612,-342.80634 13.921631,-513.6091 C -61.599877,584.35196 1.5660662,552.66921 40.108137,503.71393 97.612823,440.0158 153.93275,375.48139 218.00197,318.03542 327.65298,214.16711 435.1577,107.86672 544.84947,4.1884508 616.07606,18.717904 686.03132,55.61193 757.55526,76.881362 937.31672,133.11114 1128.6871,161.16709 1294.7966,254.29075 1305.5128,385.37864 1291.7181,517.18229 1282.4631,648 c -16.2651,101.82437 -23.8414,204.96368 -39.7037,306.69459 -59.4657,32.33897 -133.7226,43.99944 -198.7215,68.43801 -197.2174,62.0995 -392.96196,130.0809 -591.36111,187.6685 -15.52338,-65.8031 -147.22067,-35.0633 -100.82998,31.5481 -99.27978,42.1155 -206.13018,64.5184 -308.748987,97.7554 -27.795405,6.107 -59.218889,21.2709 -85.514619,20.6454 z"
         id="path3015"
         inkscape:connector-curvature="0" />
      <path
         style="fill:#fce466"
         d="m -40.81464,1361.25 c -23.044311,-57.4232 -73.4914,-109.5936 -57.950873,-179.2888 2.43642,-176.7606 5.536565,-353.66079 13.175094,-530.26268 C -73.001225,593.81353 -9.5500891,569.79995 25.95544,528.51414 53.604166,501.10757 83.492381,465.61863 107,440.64279 128.55334,406.54384 162.42245,382.46837 189.07569,352.41268 243.2151,297.20111 299.75129,243.42256 357,191.54022 411.78703,138.83916 467.41323,86.663671 519.16166,30.433682 c 34.78471,-43.538949 87.35599,3.147895 127.70111,13.069541 84.21017,34.737352 171.82523,61.324877 260.75173,80.366787 105.8101,35.35934 216.2883,56.31704 318.3188,102.54958 45.3244,15.63126 86.0408,39.93407 70.1566,97.18374 1.7742,127.64435 -10.6172,255.11732 -24.1213,381.82043 -13.215,83.59278 -16.14,169.18875 -32.6362,251.8723 C 1119.1101,1001.7781 992.96183,1035.5426 871,1077.4993 732.1177,1122.1158 593.5397,1167.86 453.89414,1210 c -26.93348,-71.7417 -140.27838,-28.531 -110.25679,35.3185 -124.58436,45.3957 -253.574168,78.6059 -380.873781,115.7874 l -3.578209,0.1441 0,0 z"
         id="path3013"
         inkscape:connector-curvature="0" />
      <path
         style="fill:#fce258"
         d="m -40.371429,1357.7434 c -38.714255,-60.3112 -70.230641,-128.3731 -58.481088,-204.1679 5.289022,-165.80392 4.640729,-332.03497 14.887579,-497.5755 10.918595,-30.43241 32.80828,-43.65816 56.182714,-67.08452 22.8408012,1.66488 33.2457595,-23.09019 51.565464,-12.05916 55.863644,-20.79154 1.296289,2.15401 18.98552,-0.10209 25.441021,14.18961 16.061008,-62.61496 22.695313,-18.67601 26.905128,-6.20529 28.950877,25.3396 56.719667,-2.85031 1.49528,11.05245 35.51779,-16.69616 29.80487,12.99708 -23.91632,-3.7488 -46.55844,10.33554 -54.68621,12.38272 14.31464,-0.16788 11.84393,17.67055 42.91473,2.62824 9.71207,-3.60479 47.94614,-9.46366 64.89017,-20.13021 40.45129,-1.64573 2.30827,-25.50148 -9.85643,-18.85574 3.39316,12.64657 -29.3445,11.06462 -28.36959,7.83127 -12.88186,-6.96836 -10.6506,-43.29809 -21.15773,-24.10251 0.29673,7.31652 -10.96518,4.33431 1.85004,18.99827 -24.70302,1.24153 -22.52503,-4.78766 -27.30408,-24.19357 C 106.97289,546.98605 61.943616,494.14654 92,496.5 91.014375,476.50005 121.04185,456.17865 134,431.08145 162.25772,398.37339 193.05942,367.45162 224.12034,338 c 23.83519,-14.59181 33.16805,-48.15597 62.35833,-63 28.90195,-29.20288 65.36294,-55.17879 92.07299,-81.472 23.24618,-8.58121 23.48733,-19.73744 38.11082,-31.03285 27.22212,-13.58973 14.35272,-15.83182 28.51914,-32.03462 -4.37891,29.59636 35.2224,-53.066709 22.76075,1.02224 -6.92997,12.31464 29.24354,4.34802 10.0866,-7.99776 26.25084,-31.657792 -16.62835,-1.3012 2.43748,-29.149821 C 493.15198,87.944033 505.87955,40.950533 527,60.5 c -5.23112,-13.514235 27.01823,-44.57254 46,-29.211728 31.90053,7.201748 19.71775,18.630234 40.41682,18.303423 10.18658,31.649263 -14.84784,43.878446 -25.68374,17.344653 1.37942,20.838079 -42.69064,9.354587 -15.2917,40.730172 C 558.98119,90.230666 535.74097,118.53388 542.83399,84 c -22.52618,-13.453153 -5.2492,44.36678 11.15801,34.49929 26.83142,0.47619 -18.05502,30.76287 -21.42133,-1.16387 -30.05592,-8.02513 -60.17091,2.24963 -47.25039,5.04238 17.22921,15.30583 6.9437,27.03448 -9.20099,35.79552 24.99392,19.35056 -20.16938,23.32773 19.4877,23.24489 -40.58789,6.83875 -3.25502,15.12421 -13.60053,31.95415 18.8048,7.00669 8.11149,-31.4796 32.09784,0.91576 9.9678,-9.55573 -9.12882,28.55805 8.8957,7.86106 -5.45412,-26.33477 25.64506,9.04269 2.12858,-27.11009 1.11525,-10.32107 -66.14851,-33.52353 -20.49719,-34.92514 17.01222,-4.86832 47.31285,39.61346 25.75414,33.22607 12.01222,37.23245 31.43376,-10.35427 47.73302,-18.57389 37.39373,6.98009 -29.6695,36.54801 17.39677,21.22115 31.11347,-22.68726 -2.76659,29.92886 43.48399,2.88613 45.84127,-12.56159 100.76666,10.36145 139.80188,-5.24761 -5.3958,-12.8482 37.26254,-5.02755 36.4488,9.35888 6.71682,18.5699 35.0854,27.97388 35.81436,12.68644 28.55462,3.93923 1.76492,-29.48762 31.75659,-19.91012 13.34024,1.83053 10.07369,-21.71117 11.28905,-27.58593 5.36825,2.32757 50.75552,32.19658 42.73141,28.74004 -19.91553,-13.29813 -47.8713,3.15223 -12.84566,9.6792 -15.74795,20.24564 -28.66509,9.02041 -41.6017,12.87525 -9.65793,17.90986 -27.88118,-3.1795 -23.86598,13.78044 -35.53532,-1.89039 2.32999,16.5879 17.03003,11.82479 2.74517,12.03038 10.44931,42.40302 19.5946,20.65497 6.77442,-40.11885 -0.61976,7.30367 28.32741,-18.44066 28.20795,-11.49527 -3.54384,44.10232 30.8321,17.97013 27.66338,11.43215 -11.20499,-23.84593 -24.2551,-32.50955 26.66069,-9.19704 5.93042,-27.96779 36.0135,-7.57799 7.91884,22.42355 39.6802,-20.09897 27.9294,12.74106 -0.53823,53.11375 23.0792,-51.19169 9.2214,-22.09269 -25.07849,-6.67822 -62.76801,-17.93889 -43.6047,-32.96667 -19.73188,12.04453 -10.93663,7.18866 -32.39,-6.06613 16.29877,-11.74221 48.04527,14.52556 58.59,-1.57058 22.3833,6.34852 0.20015,36.12398 23.0509,20.78333 10.0791,34.89048 10.7282,15.86187 26.3939,8.35814 33.164,-9.88564 15.0796,2.0486 45.7385,-10.85814 6.3848,-16.4041 24.3734,41.9254 -1.1074,26.13721 -6.6344,23.18525 53.5872,5.1754 22.2878,5.11279 -4.4583,-0.61147 -12.5905,-44.34264 1.7651,-24.93105 21.5988,5.48588 42.3252,10.8316 60.7832,18.48484 20.929,14.98026 29.8379,4.59118 57.6745,22.69621 12.6433,7.99083 42.0694,12.09087 55.2787,33.98384 26.2745,45.05621 5.1814,108.44302 9.0878,160.5697 -6.8145,101.26328 -19.9579,202.71296 -21.3727,304.7497 -12.4314,72.38198 -9.2559,150.80872 -30.1426,219.45165 -256.87321,82.6241 -513.393,166.7808 -771.05517,247.0322 -22.8036,-31.0279 -123.49889,-60.0413 -124.5422,15.6241 16.17346,51.4548 -97.6738,43.6319 -133.40655,67.5296 -82.08734,21.7052 -163.559775,54.2851 -246.621909,67.8026 z M 407.63682,427.77862 c 12.91223,-31.28986 3.42187,15.21398 22.63961,-20.22603 27.3628,-8.77191 31.83347,1.15954 32.72356,-15.42025 12.38061,-6.28958 4.28662,20.20327 17.9622,0.9083 20.40631,5.72642 2.85932,-45.00827 -16.55871,-37.65334 -25.88644,-18.26697 -30.10894,5.30913 -39.77089,-9.33945 -5.82522,34.88737 -13.03252,-35.39272 -24.33792,7.43251 -32.0416,16.5116 -5.87067,20.39481 -12.39622,22.12774 -0.82403,21.22264 15.32509,-24.10113 21.3133,15.50935 -16.90646,32.39921 26.8646,-39.69033 14.35933,12.58286 -5.17813,4.75719 -42.51218,25.81803 -15.93426,24.07831 z M 691,419.04174 c -9.26112,-33.88623 56.68132,-8.19181 22.09021,-32.16094 -1.17768,-27.68908 16.02405,20.82191 10.16734,-21.438 -29.95287,-1.97391 -14.11236,-8.08659 -19.0389,15.5572 -19.10735,-15.47392 -55.65343,11.12939 -47.74776,-20.97266 -23.3084,-0.56224 -38.41473,-23.12062 -51.16684,9.64653 2.07632,-14.33665 -34.47511,-4.77308 -34.35422,-9.60705 2.67403,11.05563 -70.60145,-20.17455 -42.58269,11.41882 20.87842,17.58446 -33.37554,-3.29407 -15.55095,16.61273 7.61276,19.93904 46.08499,7.6831 33.36713,-19.67031 0.15323,23.73572 37.1773,34.50709 29.82996,30.604 13.6425,-6.95573 37.55518,-2.08088 49.5332,-6.10727 22.36619,8.37022 37.41544,-9.28198 43.12574,16.82214 14.37339,-26.53482 13.32534,21.81587 22.32778,9.29481 z M 969.43,303.11331 c -2.50803,-19.01235 27.79092,7.5096 0.946,-18.92275 2.42179,-40.48412 22.06473,39.31594 21.5239,-20.62865 -16.12338,-18.38418 -22.27802,-8.72459 -27.8815,15.78978 -37.21421,6.78757 -14.84205,22.70453 5.4116,23.76162 z"
         id="path3011"
         inkscape:connector-curvature="0" />
      <path
         style="fill:#fadc52"
         d="m -40.371429,1357.7434 c -38.714255,-60.3112 -70.230641,-128.3731 -58.481088,-204.1679 5.779636,-165.3523 3.62675,-331.51958 15.618121,-496.36194 8.708971,-17.9785 13.289952,21.22861 27.023283,-11.2421 -25.286614,-9.96198 15.506355,-38.37268 30.205496,-36.98196 16.4711538,-14.94209 14.730491,-6.72473 29.542597,-6.04939 11.085755,28.11998 18.031463,-16.58925 39.86779,-9.01487 20.534484,10.00059 36.969156,17.75867 74.29238,-0.13484 64.32462,-11.11125 125.08428,-38.57043 188.27659,-55.25881 29.09972,-20.9683 62.93219,-14.70231 96.34506,-28.08711 22.08079,-12.71982 67.0828,-12.38638 71.95869,-30.44448 6.56238,2.3886 18.35688,11.88839 47.57699,4.59582 1.60202,-19.15398 -34.34963,-8.15022 -50.11219,-19.27785 -32.60611,10.6636 -25.14469,-39.0748 -5.92438,-38.40068 9.81736,-7.48054 66.35866,20.50437 67.00955,-22.7918 35.90558,0.24745 52.49666,17.68831 78.19001,18.65209 23.91368,5.46438 34.85608,25.9592 69.49021,12.04399 27.5519,-6.9648 60.457,-20.6432 92.87641,-24.41323 35.41143,-9.65513 71.16674,-24.24583 106.13141,-32.14754 22.29416,-23.74903 20.43143,2.3865 39.5052,-17.76075 53.78473,11.89915 35.43545,-51.99484 89.1586,-57.3536 31.9908,-16.13365 49.3609,-9.71492 83.3831,-18.09268 5.2179,4.22176 27.3838,-4.80801 37.904,10.39341 18.5729,16.4542 30.0032,-10.52869 43.1988,-5.66234 16.5819,-12.26042 40.3198,-6.35063 58.3348,-16.7848 65.5624,-20.03479 56.1345,66.81189 55.0983,108.59939 -1.3084,120.06119 -22.2038,239.51173 -22.352,360.08274 -8.5367,71.64428 -12.4188,144.31483 -24.7105,215.26821 -147.0245,52.85062 -298.65622,95.18932 -446.84717,145.88392 -113.58357,34.7347 -225.6647,75.8715 -340.4745,105.7049 -25.88466,-71.5649 -139.73341,-21.9017 -109.67056,37.1003 -119.28558,43.4057 -242.795231,75.3052 -364.681409,110.906 l -13.590207,2.4807 -4.142983,-1.2828 -4e-4,0 z M 202,480.90449 c -32.99281,8.59179 -27.9259,-36.97086 -6.40931,-36.09753 6.74404,-25.36579 -46.7225,-13.68963 -15.8965,-43.10564 -10.85501,-13.33631 41.01968,-30.92459 19.12223,-24.95132 3.61677,-11.31386 32.63508,-17.73113 38.35455,-39.57232 10.47251,2.6174 24.59316,-29.59702 21.73204,-14.79454 6.15246,-32.32583 18.40313,-21.72107 33.72421,-41.45557 30.93877,-20.28558 17.33861,-20.20076 50.87278,-30.94127 9.38368,-18.61182 42.55881,-15.59032 15.99132,-27.45719 8.12841,-19.60848 28.51531,19.90869 14.67535,14.31242 -1.62613,16.32105 47.52271,-18.83948 25.35681,10.19646 -25.43886,-0.25214 9.79595,19.54773 -2.77917,34.77901 -15.51536,-6.30784 18.08456,26.51455 26.25569,16.25255 13.69634,-21.83814 16.27914,2.72316 27.33612,-9.86371 45.16894,-12.40691 24.9546,14.08513 4.83337,10.26681 13.75925,27.38838 14.98278,8.2524 32.31247,-7.46182 8.09209,8.57893 12.37983,32.70894 19.58714,16.44646 -4.72665,-18.52912 23.87331,11.10554 12.90832,16.90176 10.64416,38.35089 -43.77808,-16.91576 -54.01727,27.51743 -25.94234,-11.5762 -54.58913,-21.55941 -84.26485,-16.00554 -10.97811,-3.9557 -24.14913,1.57806 -33.16856,19.42906 3.69025,12.67328 -37.59478,4.35233 -35.02369,18.39424 28.55931,-5.6488 18.6608,45.90584 6.11546,8.74878 -6.67688,-13.92727 -4.10051,14.47462 -4.61851,29.34031 -28.02137,-20.398 -27.44857,23.45941 -48.57182,-3.44926 -12.97139,-15.11163 -49.9287,4.50684 -14.69164,13.63556 -0.74857,-16.95012 5.19676,39.90093 -20.0637,7.86423 2.54214,22.19279 -15.36001,17.61837 -14.17429,-0.51316 -1.75504,24.17239 -16.62454,36.86187 -15.49855,51.58379 z m 461.5,-176.6698 c -26.00896,-13.56812 -51.43961,-13.82834 -77.89015,-18.0157 -22.10356,-7.20209 -4.33975,-25.97894 -18.13075,-31.44292 -22.81956,-15.28643 40.72689,-49.34649 31.90283,-35.16169 6.85767,-8.02507 47.98748,-26.64668 78.03449,-19.59797 26.03869,-3.35054 61.26683,1.34153 87.08216,8.08735 25.358,0.28017 23.22737,23.56179 46.97141,13.84771 -1.55091,14.56735 11.04848,18.76648 -7.63233,46.04853 -34.24444,25.3752 -82.22502,33.14599 -120.53797,34.64598 -9.13461,-5.31334 -21.70329,-7.10214 -19.79969,1.58871 z"
         id="path3009"
         inkscape:connector-curvature="0" />
      <path
         style="fill:#f2d12d"
         d="m -26.75,1353.7795 c 1.12399,-16.6693 -0.249981,-46.2755 -23.100291,-65.3872 -21.466851,-10.9531 -56.160729,-21.0476 -46.285273,-66.1344 -1.561803,-177.7174 4.593416,-355.70708 10.867538,-533.42094 C -72.786855,674.34031 -37.964249,648.65625 -4.5,638.52609 45.712285,619.97083 95.83938,610.99464 147.47662,593.60728 209.45024,574.90081 274.085,559.73446 335.2977,535.16788 c 62.75163,-14.59887 123.91213,-39.43721 189.69868,-41.66602 34.28695,-3.04177 58.29572,-29.60897 90.66631,-33.75063 42.65896,-17.32198 92.65458,-22.19995 135.11368,-36.57487 64.26513,-16.86176 128.41736,-38.50055 192.64309,-54.4388 43.49945,11.71885 9.67888,-53.39064 59.40044,-54.38024 42.0758,-13.48489 95.2132,-27.40566 131.3146,-0.5153 43.9569,-7.50951 89.421,-39.82238 133.5094,-25.84202 28.9938,43.77303 5.2513,106.13184 10.2339,156.5196 -17.936,169.17297 -19.1802,339.96402 -38.8659,509.05609 -61.169,32.34585 -135.1192,44.3731 -200.9635,69.25561 -192.01564,61.1495 -383.18786,125.0476 -575.88809,183.9848 -31.78383,-50.9556 -145.87375,-42.5939 -120.39588,37.9409 -113.30339,42.4214 -231.27138,72.0876 -347.2801882,106.5168 -6.7493848,-0.4305 -14.3444948,6.2813 -21.2342418,2.5057 z M 1061,388.04387 c 55.1025,-10.80792 -30.291,-76.82306 -16.004,-14.04387 1.2996,6.24186 6.3793,20.57178 16.004,14.04387 z m -533,80.80587 c -36.05943,12.28127 -64.56005,-46.41621 -37.47431,-26.65608 31.82182,-8.91182 69.48667,-56.04107 96.78499,-7.17643 -7.1941,23.49148 -35.18242,39.2463 -59.31068,33.83251 z M 667.5,293.55061 C 609.64782,306.59052 558.3419,223.07004 633.43123,212.5 691.15359,199.8101 767.01364,205.12002 806.50312,252.70367 783.777,298.28347 712.6643,294.2867 667.5,293.55061 z"
         id="path3007"
         inkscape:connector-curvature="0" />
      <path
         style="fill:#f6c90e"
         d="m -14.278897,1346.5559 c 2.794934,-24.3074 1.363482,-48.3875 -5.607279,-61.4585 8.992303,-15.4935 -13.376149,-6.6461 -10.42975,-25.7467 -15.02977,-16.4072 -11.821434,-0.4288 -23.455589,-24.8142 -16.700428,-0.1221 -18.128955,-39.9972 -24.621703,-29.6251 2.896562,9.0767 7.481287,37.3939 -7.843157,21.2321 -13.056648,-24.3283 10.227133,-39.1039 -0.532532,-42.2508 -11.219119,-12.087 -13.439763,-58.9224 6.048101,-43.3138 -3.767722,31.2098 12.294273,-4.1638 2.608958,-21.0102 1.05419,-5.5847 11.373015,-80.1936 7.257505,-61.0691 0.508212,-16.1012 2.428424,-46.518 1.244857,-70.92472 7.051369,-17.1979 -1.655581,-38.44292 1.077231,-55.23476 5.086072,-11.40581 3.148118,-34.9208 11.797617,-45.43339 4.686362,-6.75516 -11.319768,-20.59384 -4.765362,-39.08868 -0.569314,-12.51525 0.137117,-31.86569 -2.202762,-43.67158 C -57.12069,776.66393 -64.938181,751.85923 -55.643196,723 -54.161475,697.06581 -47.92169,668.26072 -16,656.51907 19.066382,642.23176 55.04806,633.63543 90.54876,619.92111 c 33.91888,-4.5849 69.54252,-11.90764 98.14794,-27.45115 9.8633,7.52594 64.32972,-22.37661 94.94324,-25.8223 27.77985,-10.67925 53.94432,-16.95433 81.37663,-25.16762 38.5985,-8.20538 73.51204,-28.12792 114.31931,-29.81083 27.29866,-8.07836 65.34023,-3.98785 92.61148,-23.74876 37.57337,-17.50765 78.16706,-27.92448 116.92508,-37.93551 67.50551,-20.82292 136.81137,-34.74415 203.28501,-58.06919 35.83606,-12.21397 79.54343,-16.81633 107.26855,10.43944 23.4363,8.61734 58.2514,-2.01666 80.2663,-21.44204 25.9518,-37.03619 -55.652,-55.93923 -42.3626,-7.05909 -10.9821,29.95205 -60.81149,15.37958 -64.90493,-20.82574 33.02733,-45.59506 112.50243,-62.42394 157.37263,-27.46603 33.7569,-11.66217 69.3634,-20.2299 101.5858,-29.2981 49.0171,-5.73418 36.4824,57.42349 38.6168,87.23582 -0.065,58.52428 -9.5516,113.19822 -13.3401,171.23282 -6.0829,44.83956 -6.206,89.6743 -7.7545,135.26718 -3.7643,38.67341 -5.3244,77.23035 -11.4052,114.34576 -2.1757,32.51106 -3.7076,66.75239 -9.9074,96.39328 16.7562,56.05666 -23.6601,78.79501 -75.159,85.56494 -233.84119,72.36141 -465.28663,153.20731 -699.97176,222.31981 -23.99178,-66.8034 -137.8534,-33.5053 -112.8,36.6022 -109.30364,41.401 -223.63764,69.26 -335.5593356,102.9958 -5.4249329,-0.035 -15.2018884,5.8261 -18.3816014,-1.6659 z M 674,291.8684 c -63.33271,14.21681 -110.79233,-68.45716 -31,-75.91064 53.6558,-10.4599 123.80578,-3.8612 160.97951,38.74138 C 781.8766,294.87372 714.81107,291.75877 674,291.8684 z"
         id="path3005"
         inkscape:connector-curvature="0" />
      <path
         style="fill:#f4b809"
         d="m -14.278897,1346.5559 c 2.794934,-24.3074 1.363482,-48.3875 -5.607279,-61.4585 8.992303,-15.4935 -13.376149,-6.6461 -10.42975,-25.7467 -15.02977,-16.4072 -11.821434,-0.4288 -23.455589,-24.8142 -16.700428,-0.1221 -18.128955,-39.9972 -24.621703,-29.6251 2.896562,9.0767 7.481287,37.3939 -7.843157,21.2321 -13.056648,-24.3283 10.227133,-39.1039 -0.532532,-42.2508 -11.219119,-12.087 -13.439763,-58.9224 6.048101,-43.3138 -3.767722,31.2098 12.294273,-4.1638 2.608958,-21.0102 1.05419,-5.5847 11.373015,-80.1936 7.257505,-61.0691 0.508212,-16.1012 2.428424,-46.518 1.244857,-70.92472 7.051369,-17.1979 -1.655581,-38.44292 1.077231,-55.23476 5.086072,-11.40581 3.148118,-34.9208 11.797617,-45.43339 4.686362,-6.75516 -11.319768,-20.59384 -4.765362,-39.08868 -0.569314,-12.51525 0.137117,-31.86569 -2.202762,-43.67158 C -57.12069,776.66393 -64.938181,751.85923 -55.643196,723 -57.583531,707.95545 -34.021592,714.63614 -25,706.62954 -2.7453695,697.03337 -0.71215048,702.00501 9.30498,692.94177 26.106075,689.07612 27.766386,681.0917 38.09326,684 55.991488,665.05929 63.999957,670.42411 82.0152,667.00004 c 9.521356,-9.09892 8.998818,-14.9032 15.793561,-1.27316 13.541309,-15.14584 24.319739,-14.30328 35.952819,-15.51312 18.40844,-8.93121 13.5331,-7.0634 35.5425,-10.94464 6.88577,-8.90838 18.13352,3.59419 17.69592,-13.33651 6.9656,13.31145 11.50495,-1.77278 29.64286,-5.68261 3.45051,10.12256 40.64433,-17.38582 61.35358,-14.4482 11.43429,-13.71952 21.99602,-8.41597 35.87033,-14.23339 19.15874,-13.98295 40.50072,-8.71411 64.3694,-18.49694 16.0945,-10.94526 25.1389,-2.58309 40.45696,-10.48774 12.98533,1.05518 21.97726,-13.87821 42.07926,-10.74114 12.17837,2.21897 45.76616,-15.28725 37.47412,-9.64259 12.45855,13.53795 26.32278,-19.61302 46.9966,-5.2253 7.04129,-17.57202 23.90079,-1.0497 31.78545,-15.52614 2.5362,7.92124 40.35569,-9.10887 30.912,-9.61275 -17.4371,1.70444 48.41465,-6.92644 22.78717,-7.15872 16.37514,-8.56538 49.58054,-19.01268 41.98916,-13.82861 20.83583,3.41377 24.75779,-5.63698 43.94279,-9.8352 16.99031,-5.27769 23.37905,-4.98974 43.36422,-13.76328 2.53649,4.91965 21.41097,-6.30989 33.30386,-4.49997 1.77394,-12.79466 55.81097,2.22869 40.19071,-7.20228 18.22275,-12.00309 31.90952,-11.47897 31.04055,4.45225 -5.94534,2.83351 15.92587,-33.41384 15.61425,-17.07895 17.69681,-13.91389 32.08484,-9.75754 41.81422,-20.36733 14.37279,4.41996 33.34733,-4.92387 46.99791,6.43749 9.0529,-6.95184 32.4752,7.66406 49.2344,-2.17101 22.0577,-4.6828 51.1858,-13.21815 65.9736,-33.88941 15.8641,-10.73791 25.804,-22.39588 44.7909,-28.18081 13.9897,2.26322 35.2608,-11.88658 54.7883,-9.64499 10.8537,6.47313 15.7209,-7.60242 20.663,6.66399 9.1111,-35.63712 16.9789,19.94456 23.5644,15.23102 6.9861,6.65542 1.2302,19.37188 9,30.10941 -4.778,8.58029 -6.0201,21.3721 4.3116,28.97421 -4.2585,14.67984 -6.5504,26.75337 -4.2516,41.4328 -3.5861,21.05693 -9.4078,51.76696 -1.1288,63.03259 -6.5419,14.36856 -8.3632,17.68129 -8.2486,38.22104 0.9992,16.26615 -3.1077,20.81399 -8.606,35.89513 -2.481,21.70316 -1.6228,17.14492 0.6314,41.04616 -1.0081,-19.95342 -4.8699,38.2215 -8.2204,33.26879 3.5436,22.50143 -9.9509,35.36124 -7.4756,58.14986 5.9912,10.19225 -14.8137,40.74415 2.9591,41.62686 -21.8333,1.96424 2.1241,29.98881 -4.2814,27.16502 -12.8111,19.93302 -1.6004,33.55183 -8.8172,50.97183 8.7848,17.88538 -8.1164,35.8353 -2.5195,28.58345 11.3158,12.00149 9.0213,30.61421 14.0342,44.604 5.8516,8.37584 0.8955,20.84355 14.6175,23.2714 -254.04523,82.47175 -507.98796,165.88985 -763.19905,244.86765 -26.39094,-60.1709 -141.03662,-38.8863 -117.14301,37.0058 -109.30364,41.401 -223.63764,69.26 -335.5593356,102.9958 -5.425331,-0.034 -15.2016924,5.8257 -18.3822014,-1.6659 z M 830.44352,698.77685 c 20.254,-8.68175 25.37543,-1.73707 40.24396,-19.14889 C 894.64365,677.93463 865.91733,674.92101 883,670 c 5.74318,-2.17871 -27.51694,-2.12002 -16.24951,2.25 -13.50839,-0.6754 -31.90137,-7.35338 -36.19247,3.84388 -8.11319,-6.38759 -35.27468,-9.04047 -50.55802,-12.98833 7.59432,13.67677 -3.53406,10.99761 8.2048,17.14422 11.44194,0.0692 22.72856,19.83392 42.23872,18.52708 z M 695.66415,291.35696 c -31.95604,1.14896 -53.71434,-10.73497 -44.68163,-38.34113 -18.71561,-7.89393 33.74591,-22.237 24.62447,-14.59759 21.37762,-7.37811 52.76764,-8.08229 81.12864,-0.005 49.43853,6.8781 51.82913,42.42223 -2.65568,46.86003 -19.01856,5.21165 -38.80951,6.10565 -58.4158,6.08329 z"
         id="path3003"
         inkscape:connector-curvature="0" />
      <path
         style="fill:#e5b416"
         d="m -14.278897,1346.5559 c 2.794934,-24.3074 1.363482,-48.3875 -5.607279,-61.4585 8.992303,-15.4935 -13.376149,-6.6461 -10.42975,-25.7467 -15.02977,-16.4072 -11.821434,-0.4288 -23.455589,-24.8142 -16.700428,-0.1221 -18.128955,-39.9972 -24.621703,-29.6251 2.896562,9.0767 7.481287,37.3939 -7.843157,21.2321 -13.056648,-24.3283 10.227133,-39.1039 -0.532532,-42.2508 -11.219119,-12.087 -13.439763,-58.9224 6.048101,-43.3138 -3.767722,31.2098 12.294273,-4.1638 2.608958,-21.0102 1.05419,-5.5847 11.373015,-80.1936 7.257505,-61.0691 0.508212,-16.1012 2.428424,-46.518 1.244857,-70.92472 7.051369,-17.1979 -1.655581,-38.44292 1.077231,-55.23476 5.086072,-11.40581 3.148118,-34.9208 11.797617,-45.43339 4.686362,-6.75516 -11.319768,-20.59384 -4.765362,-39.08868 -0.569314,-12.51525 0.137117,-31.86569 -2.202762,-43.67158 C -57.12069,776.66393 -64.938181,751.85923 -55.643196,723 -57.583531,707.95545 -34.021592,714.63614 -25,706.62954 -5.0421861,694.43446 3.2666981,697.56649 3.1394212,702.33916 19.529476,709.50091 19.538054,696.86912 39.441,695 c 12.853222,-12.41563 20.15654,21.05331 27.11711,-4.55165 18.292512,2.00637 29.404042,1.0788 32.73166,-8.44835 3.26639,30.07257 12.29384,-17.41559 29.71023,-11 14.20766,7.33544 27.82557,-5.37202 40,-2.34866 3.03611,-19.22322 17.04364,5.11886 14.74345,-6.02059 0.4189,-26.16714 28.94999,4.57447 38.50133,-9.08319 13.06267,-16.7186 19.5577,0.69616 26.40134,-8.23478 0.43144,18.73992 19.31771,-6.91179 33.8813,-0.33558 15.77739,-3.81865 29.2914,-3.39103 44.59061,-14.97724 13.08168,-2.5422 15.07947,-8.66174 32.52238,-4.78511 20.03162,-18.15337 12.95541,5.7157 31.12675,-13.59152 20.66175,-0.50622 18.22891,-1.00585 36.26802,-9.62333 19.74585,4.48106 19.49315,0.72032 31.40027,6.63486 23.09087,-20.08068 25.40177,4.26331 35.52515,-14.56124 8.59209,-5.65237 23.72942,6.25227 39.0394,5.6544 -22.27127,-5.77114 -9.18248,-10.4554 3.11842,-13.97802 12.69319,-5.17972 7.54479,-3.93369 25.46627,-3.32861 9.85357,-13.3968 29.15588,11.15214 28.90323,-7.19781 1.0605,5.5164 17.33414,-13.71451 32.90793,-5.26714 13.9839,-13.92421 12.44574,5.46903 22.78674,-11.07475 -1.37481,-0.90661 21.96165,5.56076 32.60975,-6.8605 24.84652,17.49625 21.49377,-4.6442 38.49565,-1.34144 6.3563,-6.32236 26.72836,-9.22501 17.65481,4.88921 32.69723,-0.42139 13.42308,-11.44984 29.1589,-9.66393 6.56576,-19.70701 36.08801,-16.43275 60.28589,-46.73781 33.15488,-22.90935 88.30323,-17.00993 108.08176,-14.92141 13.60852,0.37572 52.2128,-5.84004 42.53065,-5.38952 16.10875,3.71518 29.7245,-3.94495 25.75,-4.24688 8.3512,0.0504 18.5473,-16.42366 30.0497,-8.56828 6.5212,-13.77415 23.5235,-4.42383 37.4693,-8.91039 1.2945,-10.90231 16.8835,-0.43349 28.8805,-12.38163 22.3467,3.1649 10.879,-13.29317 25.2361,-1.94734 8.4755,7.82255 12.8729,-13.5053 26.7726,-1.17911 11.9164,-10.76658 -4.1022,6.99636 11.6149,5.55568 -9.3311,19.90172 -12.9761,2.65482 5.8389,19.09017 19.1467,14.79792 -21.8817,29.89007 10.638,14.85463 -0.2873,10.17427 0.017,28.78421 2.75,44.56216 10.9295,12.27711 -35.217,-7.73858 -2.3874,8.59369 3.7228,21.6658 -16.1882,14.1051 -9.6522,9.61421 14.79,13.50011 31.205,20.4157 11.0396,24.68215 -25.6631,-12.70539 8.2184,13.86624 -10.3151,13.80047 18.3672,19.43071 -8.5651,10.04738 -4.6138,26.60057 8.4584,4.8944 17.3347,33.32634 -0.9553,32.02336 1.4087,14.60791 16.7617,3.57176 -6.5823,19.9867 10.6561,9.62541 -16.2104,20.7493 10.1081,31.04407 3.9007,13.93263 -13.3906,39.11558 -9.2259,33.46923 23.3326,15.37977 -1.5981,29.67224 -5.9055,11.51543 -9.9256,8.75923 10.6833,19.27656 16.4905,28.86799 -9.9754,13.90867 10.8812,32.98004 -17.5526,16.20171 20.9382,16.30092 7.4487,46.68981 4.1113,39.31078 32.158,0.87794 -15.1947,8.42584 19.2862,21.52244 -11.9897,23.03415 -13.5721,16.90794 -16.7288,30.42847 7.7192,-5.5775 24.2123,28.80882 10.3839,14.81467 -14.3398,-4.7337 15.559,14.42396 9.6962,31.83876 7.7066,21.38115 15.7227,16.90318 32.7821,34.52531 19.4101,27.43737 -79.1982,28.28678 -105.5915,46.94969 -217.63801,67.8909 -433.29145,142.9847 -651.92536,207.1488 -23.99178,-66.8034 -137.8534,-33.5053 -112.8,36.6022 -109.30364,41.401 -223.63764,69.26 -335.5593356,102.9958 -5.4250103,-0.035 -15.2015774,5.8262 -18.3817014,-1.6659 z M 848.65295,704.68039 c 6.15216,-14.34433 30.08801,-10.74316 20.82017,-19.7239 9.76783,-8.22676 12.1734,-8.90911 9.45871,-10.49865 17.73329,-17.96867 -13.71421,3.45199 -14.56102,-6.64781 21.56631,-5.83229 11.76028,-22.82347 -0.89836,-2.85462 -25.48046,19.93429 4.4958,-12.34071 -18.91656,-24.04585 -0.30465,6.34316 -7.73711,17.24579 -32.26864,22.56068 0.9394,16.27678 -40.47353,-13.28956 -27.95502,7.95316 -26.17205,13.3712 6.37792,1.94545 -0.26923,9.69433 10.09194,-8.30295 23.29234,19.68565 43.97008,17.86458 5.71415,1.3144 11.73897,11.60768 20.61987,5.69808 z"
         id="path3001"
         inkscape:connector-curvature="0" />
      <path
         style="fill:#e9b60c"
         d="m 0.51506,1348.0244 c -1.9559313,1.274 15.503986,-17.3825 16.79731,-19.7208 13.835462,-14.8673 44.002255,-11.8773 45.75512,-36.3036 2.330456,16.0454 42.8385,2.1016 39.64478,-18.4685 -0.31318,9.2991 7.92476,18.1044 16.35233,5.3478 2.29906,0.2583 14.38231,11.8489 15.22102,-1.5775 9.04667,-13.2457 32.17499,-7.299 34.09778,-5.3018 -0.96903,-16.3322 11.95679,-4.1857 17.42565,-18.9211 10.37947,6.4837 11.70253,6.2257 28.53483,-3.5001 17.1768,-10.8297 26.5779,-4.4326 19.47481,-17.6755 24.27736,-26.7426 -0.71572,14.1296 14.18131,4.6093 17.73083,-2.0211 23.57906,5.5766 43.34867,-2.0462 -4.86052,-12.7957 34.78495,-9.7062 34.28053,-10.5685 7.59913,-28.9929 31.49647,-62.4987 66.2978,-69.223 9.85581,-12.6279 29.8621,1.6186 40.8577,-2.4873 15.61291,14.8952 27.28903,-5.4928 25.77303,-14.6882 -18.66429,14.1842 9.65733,-35.0545 -18.80773,-26.1776 -4.68601,8.7959 -14.39236,-13.3248 -15.66439,-1.4257 -20.47885,-3.0278 -3.98946,-5.6839 -25.03497,-2.6705 -4.34457,2.6013 -13.87689,-9.2194 -14.71272,-7.5205 -0.22396,22.4075 -9.98687,-9.9485 -17.94981,3.7264 -17.57045,25.6595 -21.32745,-7.2547 -9.40171,-11.6302 25.9428,17.3256 -7.288,-28.7143 11.12095,-3.8587 14.16844,-25.7993 1.99337,2.9306 -4.23094,-15.1153 -6.00608,-6.049 -10.48244,-20.9757 1.73931,-30.0411 12.9554,-6.2346 14.58476,-6.8674 21.32855,-22.0894 -26.18232,20.3116 -15.73523,-4.3541 -19.91713,-14.4872 -21.82051,17.5209 9.12323,-11.74876 -1.36005,-17.03182 -12.366,16.58942 -28.6277,-14.57214 -22.06306,16.41172 -2.97902,16.0729 -4.36592,22.0325 5.30139,38.5769 -18.59731,-2.1845 -28.47278,50.0368 -27.21598,27.6659 9.28679,-17.9843 2.02961,-20.6079 -15.3025,-19.0885 13.2355,9.3695 -0.41377,23.4385 4.81917,16.2816 -1.21454,23.1454 -34.22021,16.9222 -23.77276,9.1311 -12.57931,-10.1986 -13.99902,-23.2594 -8.37108,-17.6506 -3.93689,6.7907 -3.51563,-19.8385 8.36626,-15.9578 9.58699,2.5299 20.4882,-20.0652 1.16353,-6.4345 -18.19652,9.417 -25.40755,-8.7394 -6.59208,-2.1133 10.26644,-1.7809 -5.69334,-38.20431 5.2539,-25.746 12.66938,-17.97374 -13.67896,-20.26442 -17.10232,-16.34161 9.66871,-27.48407 -11.35079,14.96581 -11.90156,1.55441 -20.76917,17.8183 0.48473,23.8894 12.29134,23.1189 4.39241,16.1275 -12.70968,15.4816 -10.4739,30.9752 -7.66003,-15.7169 -31.31672,-15.856 -50.06744,-9.4423 -20.56886,8.2036 13.50542,-12.5363 4,-10.8866 -4.13372,-10.3847 20.79491,-10.8157 21.23355,-23.6997 4.71858,-7.93927 -35.58098,5.4445 -27.23355,12.3736 -10.86834,6.1112 -30.38073,17.8645 -14,0.1788 8.39666,-3.3531 16.8451,-24.35138 36.06373,-24.66175 33.41189,1.99152 -22.28289,-5.06645 -10.69547,-10.03956 9.84049,7.06245 30.1989,-0.56147 6.63174,-10.38369 -20.2157,7.49233 8.12717,-11.16687 16.7426,1.33517 -7.23586,3.58076 -27.75102,-37.76501 -20.70089,-25.30067 3.54338,25.1628 -6.77309,-6.91722 -14.10498,8.053 30.60873,20.71697 -14.27971,-0.16215 -3.58673,6.91245 9.63395,15.07265 -21.82643,-0.0971 3.69696,-17.52897 -9.87653,-10.67492 9.24566,1.88542 14.59754,-13.67742 14.44398,-6.40319 -20.6664,-1.43949 -11.38752,-15.53639 10.81868,1.29729 2.15854,-27.18722 23.41081,-29.67133 14.87527,3.18089 -12.696,22.97049 7.34903,12.6088 15.88085,-3.11624 11.17092,-19.50338 -4.03621,-18.93841 18.01503,-9.42284 21.8032,-24.53706 27.81465,-40.97401 9.55085,-3.63649 7.40829,1.4021 -0.91875,-14.10838 -7.56108,-23.57483 5.47705,-31.80975 9.75339,-43.69597 0.77998,-24.67537 30.7211,-7.49298 22.77836,-4.5436 -4.73614,-6.90194 10.03065,-14.15501 -0.47556,-21.09568 -22.27943,-0.98415 -0.23523,-2.83611 0.5673,-17.42795 -7.34226,-18.62636 -34.02267,-26.45909 -43.34338,5.45334 6.48956,28.55364 -40.97224,20.10149 -7.98671,3.22031 -3.49246,-14.63224 4.43236,-8.91346 5.51652,-26.60163 -32.16959,-2.09167 -2.12345,-17.64299 5.27182,4.06765 -2.20356,-10.85254 13.84747,-14.65932 13.26461,-32.55031 -26.72482,13.26146 -3.38059,-0.42186 -28.92286,-7 5.00294,-13.76421 -21.0935,-30.68368 -16.33744,-13 -5.23002,25.44367 -21.45477,-9.14812 -23.31811,6.49841 -6.94486,6.62392 6.61438,9.42271 -12.13737,9.49014 -24.64666,8.16864 -19.06226,9.05753 -20.87473,-4.9862 -19.68009,17.58116 -2.40415,23.6897 -24.70389,36.09897 -12.23786,-0.38409 3.86555,14.08364 -15.64224,25.45501 1.64309,-19.22432 7.34684,-15.30817 -8.69928,-27.106 -21.975509,1.03962 5.38434,29.88231 0.65816,28.37888 -13.86554,2.46264 -25.493987,24.9953 -18.28987,40.27677 -4.568877,-14.6035 7.38339,-25.31445 7.15162,-3.57205 8.0938,4.78463 25.2344,6.52601 16.03745,17.0411 C 102.96852,810.62908 121.00033,793.23841 101,790 c -8.596118,-5.0654 -30.292354,8.77759 -21.410686,25.39491 -15.404682,4.87455 -19.605538,3.41099 -22.044076,-14.466 -8.517688,12.26064 -3.456145,66.63845 -17.518178,39.95349 -7.455677,-0.71862 -30.0278448,7.08929 -55.249068,0.0494 -31.011037,14.04418 -15.913612,-44.44654 -29.739238,-40.49305 4.305181,-23.27047 -10.700682,-66.92163 7.623527,-87.18875 13.013552,-9.05196 43.1972405,-20.54385 40.016719,-5.84068 11.971626,-4.37753 16.86839,-6.53998 35.77119,-11.48994 12.031142,-19.81159 21.611181,27.24709 26.25552,-7.6666 16.523841,4.31216 32.029849,7.30313 33.95069,-8.26643 3.81225,33.12864 11.53582,-13.98758 29.76037,-8.12166 13.62602,6.68616 25.44222,-8.3227 38.44848,0.23512 6.38312,-26.17538 14.96413,4.15714 18.0873,-11.01115 -6.97459,-26.12585 42.45947,9.14062 34.29745,-6.84247 17.8296,-16.93859 21.63279,-0.58232 29.39612,-8.93341 0.43144,18.73992 19.31771,-6.91179 33.8813,-0.33558 15.77739,-3.81865 29.2914,-3.39103 44.59061,-14.97724 13.08168,-2.5422 15.07947,-8.66174 32.52238,-4.78511 20.03162,-18.15337 12.95541,5.7157 31.12675,-13.59152 20.66175,-0.50622 18.22891,-1.00585 36.26802,-9.62333 19.74585,4.48106 19.49315,0.72032 31.40027,6.63486 23.09087,-20.08068 25.40177,4.26331 35.52515,-14.56124 8.59209,-5.65237 23.72942,6.25227 39.0394,5.6544 -22.27127,-5.77114 -9.18248,-10.4554 3.11842,-13.97802 12.69319,-5.17972 7.54479,-3.93369 25.46627,-3.32861 9.38862,-7.68477 16.46291,2.70443 28.46647,-0.32579 -4.39199,-2.36312 11.70882,-17.84508 24.34898,-12.0956 20.40498,-5.27087 17.51928,-6.40555 28.60491,-3.46813 0.16497,-21.06665 21.0673,4.75822 35.78729,-14.51068 24.84652,17.49625 21.49377,-4.6442 38.49565,-1.34144 6.3563,-6.32236 26.72836,-9.22501 17.65481,4.88921 34.30883,-0.94559 11.9096,-11.38476 29.4966,-10.0509 0.65129,-24.4561 12.59953,12.27942 14.3585,-9.17945 22.59305,-24.93258 87.44664,-73.54468 138.7448,-50.40771 3.61527,-15.31555 23.94998,5.4928 33.6408,-4.1137 17.43898,-9.62528 38.15069,10.36402 41.45969,-11.0008 11.27431,13.31304 12.23951,0.37305 26.57291,-8.70153 15.0059,10.73096 16.1929,-11.55877 33.3118,-2.13829 18.8295,-6.64528 14.74,-7.93396 31.5787,-8.97683 3.8588,-12.7263 35.175,2.85008 28.237,-15.84642 5.4341,7.07 20.6986,11.64226 21.1762,5.87848 5.8924,-6.25154 32.7829,-8.52687 15.3323,6.27636 23.6631,-1.81232 8.6859,10.73521 4.1479,12.33954 38.1524,-9.21476 -1.4381,51.42733 16.6813,20.64376 14.6457,1.06828 6.2652,25.69669 7.6528,40.45828 22.423,26.43249 -31.5936,-9.48516 -3.9367,14.19324 4.5572,1.5429 11.5764,25.63355 -7.1065,3.31944 5.8959,13.49898 35.1751,30.13586 16.7303,25.18166 -21.4124,6.05308 -8.9333,0.86061 -9.4212,21.0508 -3.5499,3.81347 4.831,13.74261 -11.1615,20.34011 11.3257,5.04416 5.0209,21.09445 13.1454,32.77121 -33.8533,6.41539 8.0661,10.34163 -8.0686,17.42142 -8.2898,0.83925 -13.376,30.22262 -12.3598,25.16067 12.0387,11.48202 21.8039,33.89918 0.01,40.16729 16.3012,4.24118 9.9547,44.16855 1.8977,16.65205 -20.2398,3.3331 1.3522,12.2166 7.1076,26.22489 -3.8401,3.30883 14.3377,43.55217 -11.6496,17.81562 13.0573,15.2845 -4.4431,47.40156 0.074,39.57447 36.0336,1.8889 -13.8109,8.3701 21.2537,22.29548 -11.9897,23.03415 -13.5721,16.90794 -16.7288,30.42847 7.7192,-5.5775 24.2123,28.80882 10.3839,14.81467 -11.7986,-4.81157 14.0281,17.09991 11.6926,37.83876 6.6224,14.43957 19.0179,13.37611 31.2175,30.92598 -6.175,23.713 -84.5894,30.92953 -117.463,47.93442 -211.85497,67.0928 -422.3823,138.5154 -635.08804,202.8284 -26.21006,-53.6995 -138.33554,-45.6238 -118.79221,31.5103 -29.00488,28.4716 -103.13763,36.2214 -148.90285,54.6527 -63.12436,17.932 -126.13633,39.4264 -189.64964,54.1726 z m 506.2044,-407.76374 c 8.10069,-11.66511 -8.95213,-35.62825 20.38059,-24.58376 -7.38027,-16.64532 26.59253,-47.48667 21.14995,-25.24765 -6.34358,14.78408 7.40058,-5.87383 24.69695,1.57075 24.2587,3.20748 36.81002,6.75292 59.90771,-8.17611 11.67319,-8.77388 30.84061,-30.4535 39.14534,-7.92102 -8.65821,-2.19987 33.89775,-20.97588 13.10447,-21.91427 -2.9868,-13.00626 -20.13103,-5.92838 -41.92252,-0.48856 -36.69086,12.76551 -88.87961,0.69435 -111.92559,-30.5662 20.70517,31.61084 -28.2683,11.14027 -19.78839,14.4155 0.28143,6.46341 -22.70295,2.02002 -7.21822,10.22842 10.73756,0.48844 -15.70606,8.92381 -6.17289,17.08096 -6.85204,13.14295 -12.38642,23.31341 -7.16247,34.237 11.97836,-9.9294 8.38687,25.63481 -2.41239,18.11057 6.20503,10.62433 13.59233,22.30375 18.21746,23.25437 z M 830.68142,703.1532 c 14.83785,6.44567 39.03968,-21.71415 38.31858,-13.73653 9.81385,-8.73196 36.64643,-4.41893 38.5,-21.41667 18.67604,5.67636 34.08843,-43.23881 30.0877,-35.75 -19.99844,1.74621 -43.52483,40.04136 -61.76089,24.71819 -12.68914,-3.9406 -28.18858,28.90078 -22.87324,6.47586 12.56297,-13.44587 58.02442,-32.96604 9.8887,-51.45936 -24.48079,0.35707 -15.98341,40.24253 -18.29427,39.01536 -21.13238,2.17255 -34.63239,26.19323 -55.15148,8.75763 C 778.69372,635.02822 731.88476,600.9983 756,641.4604 c -0.57163,16.14801 16.82547,28.0222 20.56307,45.33525 17.33097,5.17005 15.08338,1.1973 39.6181,11.45988 6.99076,-0.16407 12.37057,18.46343 14.50025,4.89767 z m -858.124716,356.6243 c 2.451584,-25.2041 8.190619,-34.4199 -8.556704,-31.3347 25.120577,-12.6227 -19.874126,-28.8876 -2.75,-47.43817 -6.296161,-20.85913 24.47435,-28.39241 25.312924,-30.24595 C -31.07892,940.58614 -21.03614,901.70518 0.35714,926.5 c 42.378537,-11.69812 -0.45094953,32.91749 15.26172,29.97835 -8.5545842,20.90299 17.90059,12.50492 9.592875,31.50197 1.75912,16.47808 -23.9721879,7.78676 -6.228025,31.52968 -7.140799,1.4359 -29.5928,-6.7588 -33.693938,17.4899 -2.087889,-3.0981 -3.481326,29.1374 -12.733068,22.7776 z M -6.510934,912 c -22.491454,-14.87979 -41.347737,-18.66507 -17.503181,-31.79929 6.481022,-30.66848 28.7621585,-20.7681 44.238485,-10.95532 -3.741003,42.12276 -6.578072,40.54798 -22.9242844,34.86257 -7.4659516,-2.83887 0.18122,11.79009 -3.8110196,7.89204 z"
         id="path2999"
         inkscape:connector-curvature="0" />
      <path
         style="fill:#e4ac13"
         d="m 0.51506,1348.0244 c -1.9559313,1.274 15.503986,-17.3825 16.79731,-19.7208 13.835462,-14.8673 44.002255,-11.8773 45.75512,-36.3036 2.330456,16.0454 42.8385,2.1016 39.64478,-18.4685 -0.31318,9.2991 7.92476,18.1044 16.35233,5.3478 2.29906,0.2583 14.38231,11.8489 15.22102,-1.5775 9.04667,-13.2457 32.17499,-7.299 34.09778,-5.3018 -0.96903,-16.3322 11.95679,-4.1857 17.42565,-18.9211 10.37947,6.4837 11.70253,6.2257 28.53483,-3.5001 17.1768,-10.8297 26.5779,-4.4326 19.47481,-17.6755 24.27736,-26.7426 -0.71572,14.1296 14.18131,4.6093 17.73083,-2.0211 23.57906,5.5766 43.34867,-2.0462 -4.86052,-12.7957 34.78495,-9.7062 34.28053,-10.5685 7.59913,-28.9929 31.49647,-62.4987 66.2978,-69.223 9.85581,-12.6279 29.8621,1.6186 40.8577,-2.4873 15.61291,14.8952 27.28903,-5.4928 25.77303,-14.6882 -18.66429,14.1842 9.65733,-35.0545 -18.80773,-26.1776 -4.68601,8.7959 -14.39236,-13.3248 -15.66439,-1.4257 -20.47885,-3.0278 -3.98946,-5.6839 -25.03497,-2.6705 -4.34457,2.6013 -13.87689,-9.2194 -14.71272,-7.5205 -0.22396,22.4075 -9.98687,-9.9485 -17.94981,3.7264 -17.57045,25.6595 -21.32745,-7.2547 -9.40171,-11.6302 25.9428,17.3256 -7.288,-28.7143 11.12095,-3.8587 14.16844,-25.7993 1.99337,2.9306 -4.23094,-15.1153 -6.00608,-6.049 -10.48244,-20.9757 1.73931,-30.0411 12.9554,-6.2346 14.58476,-6.8674 21.32855,-22.0894 -26.18232,20.3116 -15.73523,-4.3541 -19.91713,-14.4872 -21.82051,17.5209 9.12323,-11.74876 -1.36005,-17.03182 -12.366,16.58942 -28.6277,-14.57214 -22.06306,16.41172 -2.97902,16.0729 -4.36592,22.0325 5.30139,38.5769 -18.59731,-2.1845 -28.47278,50.0368 -27.21598,27.6659 9.28679,-17.9843 2.02961,-20.6079 -15.3025,-19.0885 13.2355,9.3695 -0.41377,23.4385 4.81917,16.2816 -1.21454,23.1454 -34.22021,16.9222 -23.77276,9.1311 -12.57931,-10.1986 -13.99902,-23.2594 -8.37108,-17.6506 -3.93689,6.7907 -3.51563,-19.8385 8.36626,-15.9578 9.58699,2.5299 20.4882,-20.0652 1.16353,-6.4345 -18.19652,9.417 -25.40755,-8.7394 -6.59208,-2.1133 10.26644,-1.7809 -5.69334,-38.20431 5.2539,-25.746 12.66938,-17.97374 -13.67896,-20.26442 -17.10232,-16.34161 9.66871,-27.48407 -11.35079,14.96581 -11.90156,1.55441 -20.76917,17.8183 0.48473,23.8894 12.29134,23.1189 4.39241,16.1275 -12.70968,15.4816 -10.4739,30.9752 -7.66003,-15.7169 -31.31672,-15.856 -50.06744,-9.4423 -20.56886,8.2036 13.50542,-12.5363 4,-10.8866 -4.13372,-10.3847 20.79491,-10.8157 21.23355,-23.6997 4.71858,-7.93927 -35.58098,5.4445 -27.23355,12.3736 -10.86834,6.1112 -30.38073,17.8645 -14,0.1788 8.39666,-3.3531 16.8451,-24.35138 36.06373,-24.66175 33.41189,1.99152 -22.28289,-5.06645 -10.69547,-10.03956 9.84049,7.06245 30.1989,-0.56147 6.63174,-10.38369 -20.2157,7.49233 8.12717,-11.16687 16.7426,1.33517 -7.23586,3.58076 -27.75102,-37.76501 -20.70089,-25.30067 3.54338,25.1628 -6.77309,-6.91722 -14.10498,8.053 30.60873,20.71697 -14.27971,-0.16215 -3.58673,6.91245 9.63395,15.07265 -21.82643,-0.0971 3.69696,-17.52897 -9.87653,-10.67492 9.24566,1.88542 14.59754,-13.67742 14.44398,-6.40319 -20.6664,-1.43949 -11.38752,-15.53639 10.81868,1.29729 2.15854,-27.18722 23.41081,-29.67133 14.87527,3.18089 -12.696,22.97049 7.34903,12.6088 15.88085,-3.11624 11.17092,-19.50338 -4.03621,-18.93841 18.01503,-9.42284 21.8032,-24.53706 27.81465,-40.97401 9.55085,-3.63649 7.40829,1.4021 -0.91875,-14.10838 -7.56108,-23.57483 5.47705,-31.80975 9.75339,-43.69597 0.77998,-24.67537 30.7211,-7.49298 22.77836,-4.5436 -4.73614,-6.90194 10.03065,-14.15501 -0.47556,-21.09568 -22.27943,-0.98415 -0.23523,-2.83611 0.5673,-17.42795 -7.34226,-18.62636 -34.02267,-26.45909 -43.34338,5.45334 6.48956,28.55364 -40.97224,20.10149 -7.98671,3.22031 -3.49246,-14.63224 4.43236,-8.91346 5.51652,-26.60163 -32.16959,-2.09167 -2.12345,-17.64299 5.27182,4.06765 -2.20356,-10.85254 13.84747,-14.65932 13.26461,-32.55031 -25.67823,12.63583 -5.66309,1.11109 -25.03677,-6.72824 12.26762,7.28808 30.34311,-5.44819 10.67828,-3.85558 -23.38667,4.9953 3.56104,-8.30213 5.13563,-10.21935 11.46967,-0.10017 41.74026,-20.69276 38,-10.69682 18.29523,-18.55256 18.51897,-14.0711 21.63396,-9.30195 7.98042,-25.90276 15.03164,-2.18009 30.86604,-14.83643 -0.53131,-8.25701 23.49514,-10.13843 25.95572,0.60975 17.57409,-28.00751 16.44461,1.60543 26.14578,-13.97138 10.02055,-11.16792 22.99259,-23.46285 36.96876,-18.88631 8.64894,-0.47098 7.36773,3.05704 22.27187,1.33336 17.31038,-18.69209 23.03787,6.91577 32.44732,-7.44807 4.32833,8.99882 0.36432,11.40978 25.27325,-2.4637 19.63431,9.49593 14.17057,-24.08988 29.94163,1.47838 5.4948,-26.03761 3.22283,6.23221 21.32537,-5.62609 -23.69946,-26.78543 10.98864,-3.06443 11.2778,-11.1134 4.8993,7.42226 16.61876,-16.40631 26.9938,-8.41245 14.93272,-7.32618 43.1294,-13.48729 34.89034,-8.82008 3.53736,-7.13558 19.58449,-4.93701 38.42318,-9.47367 -9.67806,7.18956 -5.23642,12.48099 10.26661,0.32182 11.7335,14.67289 15.18692,-13.23048 25.09559,-2.51262 -0.27867,-20.94194 35.72813,10.49386 18.21816,4.63184 22.95054,-13.3639 -3.96534,25.60667 14.12504,23.5514 -2.4983,8.32141 18.32837,-23.36106 10.84091,-21.45131 14.95184,-18.52158 32.19776,-40.71219 62.37479,-59.90993 38.03414,-32.93976 96.34543,-5.77487 127.85118,-7.99128 3.22374,-1.50629 18.28726,-12.50618 34.82983,-9.16653 8.98546,18.36694 -0.50577,-18.02974 17.16507,-3.54136 -0.057,-7.4681 17.9073,-19.96997 28.0142,-10.74642 4.114,-20.60818 29.6946,0.23346 36.3469,-14.37536 8.3182,3.7863 21.6285,-8.14986 35.27,-10.04755 15.7008,-2.85049 8.3452,-1.9009 21.7979,-4.56882 4.9324,10.43755 31.601,-7.32128 24.1095,-2.0118 12.8131,2.63159 -2.3032,9.09211 9.563,13.99829 -23.791,10.08613 9.9719,2.1312 -0.2832,17.72123 5.5477,10.66368 -11.5614,20.65792 9.0573,9.40268 -21.6219,40.93524 9.604,-8.23771 2.9427,24.17799 -0.7045,14.25139 -26.3207,31.27158 -7.1245,35.4145 9.6395,-16.98398 -3.8603,16.68095 3.567,12.28379 7.1691,32.9552 -10.3363,-2.56992 -10.798,13.25157 -4.7745,8.64239 18.0288,26.75574 0.3486,27.13474 4.4003,21.56069 -19.4733,13.93785 -6.4374,24.23228 15.2734,13.94837 -7.9651,-1.66878 -9.8886,19.44086 -20.214,-4.1527 15.8071,8.57893 -7.1674,20.19202 13.5277,10.51874 9.1209,17.08077 9.9178,33.53712 -13.7537,-33.03109 -24.5113,-3.97954 -22.0975,9.38412 1.0633,25.01997 -12.4878,26.55403 1.1201,36.19718 22.6045,8.2838 -25.6987,30.90181 -5.9812,38.62134 -21.5481,24.13352 -2.4471,13.70582 -2.536,28.59976 -15.6333,2.92872 -2.8128,24.92051 -7.7766,25.66041 1.543,16.06909 -8.059,41.25283 9.7675,26.51273 7.7185,10.70782 -1.818,32.69199 -3.4099,23.0178 -17.0937,2.01908 9.5914,4.56958 7.4368,6.46951 -3.1327,15.9651 -7.504,7.84868 -22.441,9.5385 -10.4826,-12.37745 31.022,34.8014 2.8246,18.98695 -4.1627,-15.50135 -2.7474,17.25719 13.7381,13.51717 -30.7347,12.12073 15.5383,3.36738 3.2443,6.43548 2.103,17.84877 18.8397,17.59376 17.9098,19.04007 9.5057,3.0113 40.472,6.65517 33.6036,11.16739 38.2824,27.70517 -69.7122,33.04314 -92.6504,49.49137 -206.186,65.5577 -411.22395,134.8867 -618.30975,197.5119 -26.21005,-53.6995 -138.33553,-45.6238 -118.7922,31.5103 -29.00488,28.4716 -103.13763,36.2214 -148.90285,54.6527 -63.12453,17.932 -126.136629,39.4267 -189.65014,54.1726 z M 604.68826,947.25 c 16.55062,-8.0682 6.38727,-12.74031 27.55129,-19.31915 7.85857,-1.73297 29.09645,3.15393 11.76043,-10.33483 7.77786,15.27912 38.54578,-31.211 24.00002,-29.06229 4.00263,-15.72376 27.60042,-3.22539 20.01531,-19.58373 -3.17144,-30.16775 2.39278,-10.89133 -12.68352,-23.93465 -33.65079,12.51835 -0.21322,-9.55092 -42.21376,9.23465 -33.5653,19.03584 -109.35127,-28.72738 -101.0882,-25.64344 18.47695,27.95403 -28.94545,10.57081 -22.02983,9.28645 1.23471,2.98365 -21.10561,6.29571 -5.75436,7.93832 14.28457,4.76782 -20.3399,11.6677 -3.78668,15.02069 -9.58285,15.08113 -13.36516,25.16867 -10.47545,37.64798 13.52468,-10.386 9.0251,26.27791 -0.4451,17.04342 4.43904,11.17001 11.86714,28.53257 20.59271,22.79859 -0.56845,-8.5303 -8.80528,-36.13716 12.86888,-20.949 -27.55348,4.11195 -10.43048,7.48213 4.3399,5.44485 -8.26214,9.77692 12.55523,6.55161 -6.74918,21.30893 25.89646,-11.36252 26.14191,11.00388 40.78727,-1.95452 2.56512,-1.34558 44.39233,-10.25147 29.67545,-3.71516 9.14014,-8.51793 11.13192,16.78934 13.63482,8.77289 z M 822.59501,735.82811 c -1.198,-15.14566 39.3642,-11.74065 34.98832,-9.82811 11.04626,-0.19001 15.83377,-13.02243 26.83527,-8.84607 C 884.31125,705.98404 912.68378,699.76749 908,695 c 9.7418,-12.54757 23.41508,-26.03617 16.66455,-19.80829 -3.43466,-17.46653 17.87534,-22.77299 9.83864,-39.87322 19.21733,-14.54012 -43.1434,5.44683 -34.20719,7.96877 -22.09241,22.72301 -11.39235,-48.66712 -52.05206,-30.62456 1.17396,30.57683 -21.05985,46.67582 -51.85126,39.56815 -24.61154,6.15818 -50.92585,-44.93715 -41.55746,-42.03261 C 752.27726,638.82874 744.37821,586.66327 738,618.5 c -11.00797,-13.46866 -1.69031,24.07013 -1.08832,38.05122 1.38948,21.15061 19.66896,32.661 25.10262,50.80604 16.01672,-15.91573 9.19946,18.49106 34.42766,16.73662 6.09438,-8.56124 13.05037,12.49701 26.15305,11.73423 z"
         id="path2997"
         inkscape:connector-curvature="0" />
      <path
         style="fill:#e7ab0c"
         d="m 0.51506,1348.0244 c -1.9559313,1.274 15.503986,-17.3825 16.79731,-19.7208 13.835462,-14.8673 44.002255,-11.8773 45.75512,-36.3036 11.51886,18.9175 43.99133,-12.1483 44.74001,-7.5464 6.89545,3.0314 18.81501,-20.2274 12.98912,1.905 17.51522,-2.8639 18.67075,-24.98 40.65291,-14.7034 9.79794,2.7742 4.56129,-5.0405 24.35952,-18.5761 10.37947,6.4837 11.70253,6.2257 28.53483,-3.5001 17.1768,-10.8297 26.5779,-4.4326 19.47481,-17.6755 24.32361,-26.281 -8.22185,26.2087 28.22688,0.3457 -4.4575,16.9992 38.22807,-1.1079 31.62114,-1.9154 17.65318,-19.4482 30.46614,11.0562 34.08333,-13.1674 8.63503,-36.8511 42.41247,-55.4482 74.12244,-69.087 8.82347,4.0803 30.39172,4.136 41.30801,8.0915 9.45037,8.4037 58.29689,-53.4243 27.96531,-26.0916 29.86067,29.8274 3.55986,-33.1228 21.37689,-5.8365 6.9252,-15.7566 10.29999,-19.3146 9.22125,3.5595 11.86791,27.6016 21.05897,-35.3473 6.72389,-11.7516 10.24223,-10.5525 3.62227,-4.0808 17.78114,5.6876 2.21674,-19.1589 12.59045,-3.6723 1.86577,-27.7445 21.6392,8.136 8.10514,-21.902 24.27742,0.4268 12.59178,-9.669 -11.7597,-19.8003 20.58296,-15.3802 -4.6912,9.0252 -18.59098,34.6973 3.05429,16.9594 6.33001,-0.5145 -0.12235,-26.2741 14.94026,-22.5567 12.544,-41.481 12.36566,33.0175 15.72861,-6.6298 8.49472,0.9725 20.55238,13.0467 33.30177,-0.5668 -8.32675,5.6849 19.44515,21.4846 15.61679,8.5778 -8.25309,-10.3608 2.2833,-26.5207 3.38321,-2.706 14.58369,-13.3383 -8.41929,-25.523 10.26109,-23.5215 -14.64272,-32.3572 13.71518,2.7451 11.73891,-11.0201 -8.91084,-1.9229 18.46541,-3.4548 14.97493,-4.5797 -0.89014,16.6035 24.27093,19.3159 27.0252,1.0003 12.48342,-9.9926 -18.92059,-12.861 13.03166,-18.6913 13.61328,9.6241 0.0244,-34.86595 16.90907,-1.0347 25.31897,-25.69756 -27.41593,21.3749 13.22974,14.9424 19.40622,16.2259 -18.23282,-26.4201 11.22668,-6.8095 15.65374,11.3837 5.30767,30.8891 16.72501,4.5931 0.13071,-1.2371 -27.54286,-17.9439 -10.19322,-13.6857 15.09837,11.1801 24.05379,-1.815 26.44353,-14.23311 2.55377,22.48171 8.94386,24.60891 8.08924,-0.0785 7.64626,-5.23349 1.21569,29.46321 25.11149,15.68631 14.96396,-19.49871 35.63504,9.9539 28.95769,-10.2222 12.00259,-1.8839 -8.42306,-22.8077 12.76273,-8.23731 16.88498,-9.28317 36.49529,4.48451 33.2232,3.41804 -0.59116,-38.80655 12.94967,11.58127 22.8998,-3.64484 17.2206,11.11741 27.42995,-11.74894 29.5833,0.94098 -1.34242,-7.09996 28.5101,-22.75235 24.3257,-5.94098 -6.45161,13.74981 2.81019,10.97461 16.0359,4.4996 5.2122,-18.81685 15.0247,5.49111 33.3509,0.94317 8.6459,-6.96462 0.068,-5.18285 23.0379,-9.78133 8.855,15.87747 11.4293,-11.72466 26.9167,6.33816 -3.0467,-19.31995 14.4734,6.27611 33.4516,-12.06984 4.9927,6.30854 10.9229,-13.63146 19.2391,-3.98436 -0.071,-4.08685 -11.7104,-31.3572 9.4829,-17.42578 0.7296,17.33429 46.065,3.94825 4.378,21.2166 -35.2212,15.13134 -104.0981,34.97469 -153.3569,51.31829 -183.1952,58.9491 -365.81654,119.8953 -550.00165,175.6339 -26.21005,-53.6995 -138.33553,-45.6238 -118.7922,31.5103 -29.00488,28.4716 -103.13763,36.2214 -148.90285,54.6527 -63.12449,17.9322 -126.136887,39.4263 -189.65014,54.173 z M 1121,973.11663 c -8.3898,-17.09191 -17.2288,-33.4607 -21.8981,-27.40823 -11.9515,-14.54258 -33.4803,8.56985 -21.5989,-19.7036 -13.1778,-11.39897 23.4836,-25.15789 13.8029,-11.62039 -3.409,1.27654 -16.5162,32.83608 12.7528,13.61559 10.2215,16.7806 10.8236,11.56364 25.7942,16.88814 -23.406,12.22945 2.7688,6.46096 8.3968,18.22763 -3.1672,7.8124 -28.6774,-7.58039 -17.25,10.00063 l 3e-4,2.3e-4 z m -53.3227,-70.71795 c -13.2813,-15.45075 16.9079,-13.38715 14.5634,-25.17651 -10.6733,-16.62505 -6.2068,-4.12851 18.3665,-17.08881 -26.9274,-13.08031 -11.0874,-21.42789 5.6979,-1.95763 18.1255,24.32838 -2.3091,12.17751 -1.5228,25.91905 -12.0589,-4.1696 -1.3802,19.7885 -15.8082,-2.57658 -4.838,26.74847 -2.5686,12.861 -13.6411,12.7571 7.1491,-0.35702 -3.5875,15.12141 -7.6557,8.12338 z m 9.7539,-45.45946 c 0.7403,-23.76328 -27.4472,-34.52851 -28.2157,-29.04739 -2.35,-16.48746 22.4687,-23.74752 34.3384,-13.69903 -7.056,-24.74169 1.6271,-3.9793 14.9717,-24.74208 0.044,7.09281 25.4864,11.2081 7.8357,15.05595 -25.1281,-3.70605 -9.8741,29.73592 -33.9449,15.49339 24.4262,11.90687 6.36,23.81879 5.0148,36.93916 z M 598.5,856.39348 c -37.15054,-4.91385 -84.79187,-34.99926 -84.14241,-65.69048 4.10373,-15.42642 -1.62354,-39.94515 11.73181,-49.87464 6.97429,-21.88858 18.75642,-17.56449 34.44247,-32.74386 19.81927,-13.77037 36.09029,-15.8058 49.59762,-22.70169 4.72514,-15.42257 22.49822,-4.07447 28.79226,-21.01133 5.68131,-0.19796 18.63904,-1.71603 20.07825,6.69807 -1.64268,-7.32229 15.79626,0.0435 12.1077,-11.93413 -4.77787,-7.21539 -15.84135,-5.71507 -30.86245,-3.99799 -7.66032,4.70982 -42.12622,-0.78275 -49.69065,18.30487 -20.66132,5.9703 -16.35889,-5.11652 -37.20303,19.23491 -11.35126,-9.02687 -4.45161,11.76869 -18.85157,3.39404 -1.30327,18.604 -1.45265,-21.02168 -17.02337,1.42875 -13.23279,-9.12722 6.95671,12.70345 -8.72625,9.47481 17.59996,30.77666 -40.87036,10.2539 -18.05032,19.5352 9.54958,21.85318 -35.30039,15.75555 -6.98519,-7.21782 31.08566,-11.0757 -6.40657,-29.80601 13.27252,-27.29219 7.41502,-16.78311 11.58309,-46.9819 -1.37163,-11.3172 -27.82401,-5.9465 -12.44616,-3.26355 -25.61576,12.79245 -2.95433,15.47152 -38.97486,20.06145 -28.56214,34.47318 10.22932,-1.2567 18.39008,7.98693 26.7783,17.2645 -3.41858,9.04379 27.37502,-2.2353 7.28385,17.80444 C 470.216,746.9687 445.1381,783.90966 457.94098,757 c -17.16711,14.92711 -22.19688,18.40571 -7.99314,-8.92664 -5.51368,-9.83024 2.75486,-16.81604 -17.2288,-14.50455 7.5416,12.51495 12.1655,5.45961 5.81851,25.5495 -19.71041,6.28882 -11.33954,-42.65601 -6.74503,-20.65449 -23.09107,-8.66575 -12.99509,-6.80496 -9.19211,-22.08235 13.05239,-27.04482 -19.34346,19.58771 -11.30577,-13.97065 14.52365,-25.6289 -31.8844,-4.53084 -3.61021,-22.12393 29.35153,-10.87981 17.25728,-3.14082 -7.16877,-11.31289 -5.4305,-31.74495 -19.62418,0.30857 -35.04265,-17.01767 -8.76347,3.63973 -32.80619,35.27547 -6.95492,37.0144 -8.77402,-0.29587 26.14687,-1.70686 19.98191,-4.97077 -16.73448,12.60138 33.57339,17.55205 -6.46121,14.24704 2.71495,17.88361 -13.93141,28.36636 -14.59304,13.84078 -7.52933,-17.42246 -0.77204,26.56782 -18.44575,14.77743 -19.83178,27.20496 -30.39899,27.29881 -12.25,-4.14176 22.7889,-20.44713 5.79928,-28.40337 -10.19679,-32.06089 17.81381,-10.11639 -13.58421,-35.97833 -6.91484,-14.16253 -25.06237,-5.75674 -13.39347,-10.72012 0.55783,-18.79569 9.31833,-27.28333 12.67448,15.47057 16.84376,-18.70434 7.53801,2.63554 30.0274,-15.93644 26.82236,-6.40282 19.57344,-9.01798 16.48304,13.61161 33.54542,-4.88274 13.61495,-8.86773 8.22177,13.56362 23.00186,-13.71444 17.02311,-4.25354 24.75829,-19.6476 35.97408,-4.12345 3.5614,-12.85792 14.13846,8.50026 30.77193,-11.85975 6.08533,12.04374 19.96585,13.0989 21.84439,5.00464 -13.56095,13.07328 33.87235,-11.52501 33.27459,-4.95336 3.20984,-29.98774 21.44723,17.59321 18.22541,-10.63233 12.16548,-0.94419 8.10548,15.65405 19.28466,2.05278 -9.48199,-24.40364 5.1409,4.87345 14.1214,-9.87535 3.85926,8.54787 12.3098,-9.74156 26.51991,-9.23324 10.01849,0.53423 42.99072,-3.26702 34.46255,-4.48531 2.14835,-15.05149 17.83919,1.71635 33.83774,-13.93507 8.25581,6.70122 -10.72742,19.52328 13.30037,1.52398 14.01157,17.87109 15.94922,-12.09172 26.75039,-1.10637 -0.27867,-20.94194 35.72813,10.49386 18.21816,4.63184 22.99424,-13.37836 -4.05804,25.48019 14.16399,23.57312 -3.45479,13.51347 -9.43141,41.93572 -18.59816,34.71626 2.74422,10.12643 -6.31184,55.15784 -1.56102,45.64259 15.04751,13.5449 21.39142,29.06062 31.01432,46.41628 16.01672,-15.91573 9.19946,18.49106 34.42766,16.73662 4.58348,-12.32512 26.67806,31.43551 25.96618,5.08363 14.47874,-7.80599 39.97597,-0.98197 37.30634,-4.01961 -8.75102,6.07371 31.15686,-3.07717 14.05954,-5.94267 -4.01245,-9.74863 19.15896,5.40191 14.11197,-14.21523 6.73572,18.28317 25.25942,-12.89893 16.8879,-13.75651 8.23851,-1.56074 15.52927,52.02755 13.80059,32.14939 12.15056,-15.80774 4.02563,2.2715 5.45941,22.07646 -13.17812,0.9059 -1.66293,31.17567 -17.3925,5.78066 -8.94528,27.19713 -36.91723,-0.62444 -33.1602,19.67341 -13.54448,2.66218 -25.10047,-12.35412 -32.13146,-0.63735 -31.15539,-20.92852 -31.66372,31.50987 -20.88799,23.77582 6.27004,-4.16298 10.91772,-23.33741 26.65277,-21.31188 23.94322,-3.03387 -2.91077,39.07605 5.88548,8.19098 -22.2984,-8.68867 -9.86482,57.27125 -23.92147,24.91691 -23.66849,-5.38558 -4.84204,22.26593 -21.41141,10.74689 -20.99459,-20.14939 16.81906,2.05544 -3.63372,-31.66482 -9.85278,-3.93698 -33.4856,19.39641 -20.92627,0.10244 -6.82456,-3.65998 18.66006,-10.87515 -1.21412,-19.0424 -1.27469,10.26587 -26.5155,14.13902 -18.69212,10.679 14.47955,27.54609 -0.28649,-5.63238 -15.20089,-0.54115 -8.60303,-30.25472 -2.09079,33.38335 -23.97774,18.00374 -4.41375,16.45509 -14.09766,5.09784 -22.2437,17.60841 12.13551,18.80169 -13.86265,8.05926 -13.00411,6.93485 -19.42269,23.1106 -46.74217,38.15659 -79.5,38.10167 L 598.5,856.39348 l 0,0 z m 115.52758,-66.94501 c -9.24101,-12.16754 15.12072,-28.70097 9.83436,-46.0338 -7.11338,-6.39768 -0.96409,-20.96436 6.63802,-15.19342 7.53948,9.46363 -6.03836,-17.36989 2.95785,-12.71642 -11.04692,9.53766 -14.47011,4.78423 -24.41559,-2.33774 -7.04099,-5.81495 -16.3526,-26.29956 -9.70249,-41.49406 -6.94306,-7.28343 -3.6703,24.11501 -10.87175,20.00906 -34.49852,-8.50808 1.97427,-16.01063 -0.46339,-27.13406 -16.44635,-1.71996 -5.33473,-1.19522 -22.31246,11.49867 -6.56922,13.27854 86.42612,53.96355 40.30546,100.90204 -14.04561,11.89267 -0.25027,18.59808 8.02999,12.49973 z m 385.63962,-8.02349 c 2.0569,-23.32554 -2.5771,-16.41463 -8.442,-29.38463 -7.4689,-11.29308 -22.2218,5.44495 -18.2252,-13.06443 -10.3124,22.23538 -38.6152,-7.59368 -12.7604,-22.87556 19.1451,-1.4424 -2.4413,17.22591 21.7503,6.38688 16.7464,-8.94935 -0.861,-3.35014 -14.9892,-13.45589 21.7242,-31.65749 -5.2942,4.9846 -10.3638,-16.91838 -4.7968,-7.94284 18.2756,-5.85156 10.4653,-16.7998 17.611,-4.8055 -16.472,-2.86695 -23.5609,-2.96651 17.7782,-22.8256 -60.3778,-3.34021 -31.8464,-13.2852 15.7507,-14.03869 -39.29205,-8.81789 -17.7446,9.93851 -21.40737,-14.98646 -5.33864,-12.39518 -4.33818,-25.75296 2.88771,-22.81763 -31.13075,-9.25569 -6.52622,1.00304 -10.76933,1.60646 -29.66667,16.70727 -31.9851,37.74368 0.22246,37.15311 24.81003,-21.70148 24.4393,-18.12007 3.72712,22.78868 -18.70251,29.65326 -5.6016,46.66438 0.43353,21.74808 -22.41654,-19.47663 -20.2981,11.64336 -29.3378,10.62078 -1.42024,-24.82979 -21.9342,-24.98247 9.55749,-5.19058 22.22487,-23.06412 6.5589,-13.93843 -9.50895,18.73989 -17.20338,-18.63655 -1.2651,-26.26047 13.69916,-5.20625 -1.6793,-15.81082 10,-29.82987 16.7623,-27.70142 -0.51473,-22.97519 -9,1.3299 -11.79189,13.9189 -50.08454,20.78324 -45.56751,18.38819 7.67709,-42.14743 -59.03361,-51.43114 -47.16361,-5.54121 -13.1717,14.21026 -36.96856,14.76321 -58.8819,8.12081 -24.51114,-22.76807 -27.40022,-44.45008 -22.95874,-71.14144 8.66402,-29.28075 19.39866,-41.90988 42.87557,-63.43493 37.31365,-38.41034 101.95797,-38.79846 142.49128,-19.98749 18.32261,0.91352 9.39754,-19.71401 35.402,-10.08305 17.23682,4.75777 7.0399,-3.686 17.05221,-9.00025 10.5174,4.98409 12.5401,-11.55552 28.9078,-12.22359 10.4073,-4.42134 20.2725,-1.79493 35.4568,-8.77492 8.3368,0.48464 22.0503,-2.66803 33.3864,-9.14061 22.5125,3.94425 14.9276,-17.22513 25.4262,-1.65348 11.2186,-4.17066 7.8263,-0.17766 26.9702,-1.29832 13.0575,-14.85753 1.2095,5.92243 11.8868,8.01857 -23.791,10.08613 9.9719,2.1312 -0.2832,17.72123 5.5477,10.66368 -11.5614,20.65792 9.0573,9.40268 -21.6219,40.93524 9.604,-8.23771 2.9427,24.17799 -0.7045,14.25139 -26.3207,31.27158 -7.1245,35.4145 9.6395,-16.98398 -3.8603,16.68095 3.567,12.28379 7.1691,32.9552 -10.3363,-2.56992 -10.798,13.25157 -4.7745,8.64239 18.0288,26.75574 0.3486,27.13474 4.4003,21.56069 -19.4733,13.93785 -6.4374,24.23228 15.2734,13.94837 -7.9651,-1.66878 -9.8886,19.44086 -20.214,-4.1527 15.8071,8.57893 -7.1674,20.19202 13.5277,10.51874 9.1209,17.08077 9.9178,33.53712 -13.7183,-33.05395 -24.5982,-3.93595 -22.0448,9.38412 -5.536,3.92126 2.7671,10.65366 -7.8714,28.8174 6.5786,-1.04382 19.6026,10.98595 6.5049,17.54306 -8.907,17.84945 -5.6703,28.88675 -17.5885,27.71828 4.8996,2.88969 1.5391,14.43241 -2.7508,10.425 z"
         id="path2995"
         inkscape:connector-curvature="0" />
      <path
         style="fill:#daaa13"
         d="m 0.51506,1348.0244 c -1.9559313,1.274 15.503986,-17.3825 16.79731,-19.7208 13.835462,-14.8673 44.002255,-11.8773 45.75512,-36.3036 11.51886,18.9175 43.99133,-12.1483 44.74001,-7.5464 6.89545,3.0314 18.81501,-20.2274 12.98912,1.905 17.51522,-2.8639 18.67075,-24.98 40.65291,-14.7034 9.79794,2.7742 4.56129,-5.0405 24.35952,-18.5761 10.37947,6.4837 11.70253,6.2257 28.53483,-3.5001 17.1768,-10.8297 26.5779,-4.4326 19.47481,-17.6755 24.32361,-26.281 -8.22185,26.2087 28.22688,0.3457 -4.4575,16.9992 38.22807,-1.1079 31.62114,-1.9154 17.65318,-19.4482 30.46614,11.0562 34.08333,-13.1674 8.63503,-36.8511 42.41247,-55.4482 74.12244,-69.087 8.82347,4.0803 30.39172,4.136 41.30801,8.0915 9.45037,8.4037 58.29689,-53.4243 27.96531,-26.0916 29.86067,29.8274 3.55986,-33.1228 21.37689,-5.8365 6.9252,-15.7566 10.29999,-19.3146 9.22125,3.5595 11.86791,27.6016 21.05897,-35.3473 6.72389,-11.7516 10.24223,-10.5525 3.62227,-4.0808 17.78114,5.6876 2.21674,-19.1589 12.59045,-3.6723 1.86577,-27.7445 21.6392,8.136 8.10514,-21.902 24.27742,0.4268 12.59178,-9.669 -11.7597,-19.8003 20.58296,-15.3802 -4.6912,9.0252 -18.59098,34.6973 3.05429,16.9594 6.33001,-0.5145 -0.12235,-26.2741 14.94026,-22.5567 12.544,-41.481 12.36566,33.0175 15.72861,-6.6298 8.49472,0.9725 20.55238,13.0467 33.30177,-0.5668 -8.32675,5.6849 19.44515,21.4846 15.61679,8.5778 -8.25309,-10.3608 2.2833,-26.5207 3.38321,-2.706 14.58369,-13.3383 -8.41929,-25.523 10.26109,-23.5215 -14.64272,-32.3572 13.71518,2.7451 11.73891,-11.0201 -8.91084,-1.9229 18.46541,-3.4548 14.97493,-4.5797 -0.89014,16.6035 24.27093,19.3159 27.0252,1.0003 12.48342,-9.9926 -18.92059,-12.861 13.03166,-18.6913 13.61328,9.6241 0.0244,-34.86595 16.90907,-1.0347 25.31897,-25.69756 -27.41593,21.3749 13.22974,14.9424 19.40622,16.2259 -18.23282,-26.4201 11.22668,-6.8095 15.65374,11.3837 5.30767,30.8891 16.72501,4.5931 0.13071,-1.2371 -27.54286,-17.9439 -10.19322,-13.6857 15.09837,11.1801 24.05379,-1.815 26.44353,-14.23311 2.55377,22.48171 8.94386,24.60891 8.08924,-0.0785 7.64626,-5.23349 1.21569,29.46321 25.11149,15.68631 14.96396,-19.49871 35.63504,9.9539 28.95769,-10.2222 12.00259,-1.8839 -8.42306,-22.8077 12.76273,-8.23731 16.88498,-9.28317 36.49529,4.48451 33.2232,3.41804 -0.59116,-38.80655 12.94967,11.58127 22.8998,-3.64484 17.2206,11.11741 27.42995,-11.74894 29.5833,0.94098 28.46503,-1.65286 -9.49719,-17.66224 23.8544,-11.64518 8.4158,8.76725 -15.0671,22.65691 12.962,13.44528 3.7936,-11.27549 23.439,-3.00471 36.8961,-2.29828 8.6459,-6.96462 0.068,-5.18285 23.0379,-9.78133 11.4973,13.64424 5.1805,-5.2266 30.25,4.89853 -15.6827,-17.6043 37.9347,11.19751 26.0516,-1.49505 73.0348,-17.03025 -42.6172,18.26406 -66.5305,26.05036 -199.89693,63.8043 -398.82385,130.8279 -599.66134,191.5731 -26.21006,-53.6995 -138.33554,-45.6238 -118.79221,31.5103 -29.00488,28.4716 -103.13763,36.2214 -148.90285,54.6527 -63.12449,17.9322 -126.136887,39.4263 -189.65014,54.173 z M 577,848.99878 c -33.37949,-4.48191 -49.39972,-38.31673 -63.80505,-48.28287 4.40238,-17.54866 1.10597,-43.34094 8.87377,-57.31826 11.18255,-16.18923 16.45047,-23.03282 31.84692,-29.51552 10.1169,-16.47019 45.34585,-36.4527 45.08436,-26.75929 22.81029,-8.76657 19.45365,-11.30957 44.25,-19.51299 11.73144,4.57014 13.99604,6.17449 26.78398,4.24709 -3.93592,-2.48377 3.13398,20.95624 -28.46971,15.1445 66.89847,-14.22775 86.09759,76.86596 63.42727,102.51264 26.14795,7.73695 -3.82599,-15.27048 19.25846,-23.93253 -8.49127,-20.51409 26.58554,-22.89115 7.41314,2.23831 -20.54389,11.70726 29.25937,-13.17734 6.9983,19.25362 -2.32994,4.32237 -13.55545,-10.0021 -23.16109,11.01657 -6.21296,-6.11325 -21.24249,5.02685 -39.31286,21.15995 -25.75346,18.46963 -61.66137,24.48873 -94.68714,30.25765 l -4.5,-0.50846 L 577,848.99878 z M 828.54755,611.9918 c -18.35298,0.0343 -58.6509,-12.34834 -50.71881,-5.64679 -33.04445,-28.37564 18.75462,-94.53302 54.30764,-107.89313 21.36387,-11.6184 35.94486,-3.18937 51.9355,2.76445 23.28037,7.79361 45.17455,23.73503 39.24762,47.14859 -3.68802,15.25768 16.14064,42.03942 -9.61079,47.45029 -3.38494,21.79479 -32.23229,12.14214 -48.56469,8.81876 -14.56926,-6.31883 -23.6803,11.27489 -36.59647,7.35783 z"
         id="path2993"
         inkscape:connector-curvature="0" />
      <path
         style="fill:#ce6c02"
         d="M 577,848.99878 C 518.72677,843.36835 503.9118,750.25386 556.58854,723 c 45.02534,-28.78517 121.91664,-62.41721 154.06753,3.92752 16.9585,42.97234 -24.24371,86.73017 -60.65607,103.17461 -18.95982,14.66912 -49.49154,14.87953 -73,18.89665 z M 805.70393,610.67084 c -5.98715,-8.53951 -27.46225,3.71894 -39.09181,-10.87046 -3.8071,-50.8669 46.10174,-107.23373 92.38792,-107.30038 15.26242,5.39356 31.77192,8.02614 46.99996,20.50004 19.42501,9.45151 14.67028,64.90716 16.2298,53.22913 4.34844,12.26668 -7.35593,30.35473 -22.0542,37.77087 C 882.63588,605.93269 841.38341,603.76536 818,612 c -3.91474,-3.81652 -8.69757,1.69641 -12.29607,-1.32916 z"
         id="path2991"
         inkscape:connector-curvature="0" />
      <path
         style="fill:#b13102"
         d="m 539,812.5 c -38.32131,-41.49991 29.57557,-112.93826 83.07996,-116.54637 50.58892,-30.35816 100.30664,26.25771 64.28429,68.20226 -22.30558,26.86842 -72.46126,47.36123 -113.72894,33.97607 C 587.6115,800.48772 548.8601,819.23487 539,812.5 z"
         id="path2989"
         inkscape:connector-curvature="0" />
    </g>
  </g>
</svg>
