<?xml version="1.0" encoding="UTF-8" standalone="no"?>
<!-- Created with Inkscape (http://www.inkscape.org/) -->

<svg
   xmlns:dc="http://purl.org/dc/elements/1.1/"
   xmlns:cc="http://creativecommons.org/ns#"
   xmlns:rdf="http://www.w3.org/1999/02/22-rdf-syntax-ns#"
   xmlns:svg="http://www.w3.org/2000/svg"
   xmlns="http://www.w3.org/2000/svg"
   xmlns:sodipodi="http://sodipodi.sourceforge.net/DTD/sodipodi-0.dtd"
   xmlns:inkscape="http://www.inkscape.org/namespaces/inkscape"
   width="744.09448819"
   height="1052.3622047"
   id="svg2"
   version="1.1"
   inkscape:version="0.48.4 r9939"
   sodipodi:docname="wall_activation.svg">
  <defs
     id="defs4" />
  <sodipodi:namedview
     id="base"
     pagecolor="#ffffff"
     bordercolor="#666666"
     borderopacity="1.0"
     inkscape:pageopacity="0.0"
     inkscape:pageshadow="2"
     inkscape:zoom="0.7"
     inkscape:cx="378.43749"
     inkscape:cy="513.52207"
     inkscape:document-units="px"
     inkscape:current-layer="layer1"
     showgrid="true"
     inkscape:object-paths="true"
     inkscape:snap-intersection-paths="true"
     inkscape:snap-smooth-nodes="true"
     inkscape:object-nodes="true"
     inkscape:snap-bbox="true"
     inkscape:bbox-paths="true"
     inkscape:bbox-nodes="true"
     inkscape:snap-bbox-edge-midpoints="true"
     inkscape:snap-bbox-midpoints="true"
     inkscape:window-width="1916"
     inkscape:window-height="1057"
     inkscape:window-x="0"
     inkscape:window-y="19"
     inkscape:window-maximized="0">
    <inkscape:grid
       type="xygrid"
       id="grid3783"
       empspacing="10"
       visible="true"
       enabled="true"
       snapvisiblegridlinesonly="true"
       units="mm"
       spacingx="1mm"
       spacingy="1mm" />
  </sodipodi:namedview>
  <metadata
     id="metadata7">
    <rdf:RDF>
      <cc:Work
         rdf:about="">
        <dc:format>image/svg+xml</dc:format>
        <dc:type
           rdf:resource="http://purl.org/dc/dcmitype/StillImage" />
        <dc:title></dc:title>
      </cc:Work>
    </rdf:RDF>
  </metadata>
  <g
     inkscape:label="Layer 1"
     inkscape:groupmode="layer"
     id="layer1">
    <g
       id="g3939">
      <path
         sodipodi:nodetypes="ccccc"
         inkscape:connector-curvature="0"
         id="path3830"
         d="m 70.36379,236.40611 0,-211.605296 211.60788,0 0.49767,211.605296 z"
         style="fill:none;stroke:#000000;stroke-width:0.99533474px;stroke-linecap:butt;stroke-linejoin:miter;stroke-opacity:1" />
      <path
         sodipodi:nodetypes="cccccccccc"
         inkscape:connector-curvature="0"
         d="m 70.866142,60.236198 211.607888,0 0.99054,141.732282 -211.607891,0 z M 248.0315,24.803127 l -141.73228,0.993134 -1e-5,211.605289 141.73229,-0.99313 z"
         style="fill:#b10000;fill-opacity:1;stroke:#000000;stroke-width:0.99533474px;stroke-linecap:butt;stroke-linejoin:miter;stroke-opacity:1"
         id="path3826" />
    </g>
    <g
       id="g3913"
       transform="matrix(1.1994372,0,0,1.2,-311.58169,314.4376)">
      <path
         style="fill:none;stroke:#000000;stroke-width:0.83450842px;stroke-linecap:butt;stroke-linejoin:miter;stroke-opacity:1"
         d="m 318.39763,201.96848 0,-177.16535 177.66536,0 0,177.16535 z"
         id="path3860"
         inkscape:connector-curvature="0" />
      <path
         sodipodi:nodetypes="cccccccccc"
         id="path3862"
         style="fill:#b10000;fill-opacity:1;stroke:#000000;stroke-width:0.83450842px;stroke-linecap:butt;stroke-linejoin:miter;stroke-opacity:1"
         d="m 318.85607,83.441089 177.66536,0 -0.41688,59.055121 -177.66536,0 z m 118.16566,-59.055118 -59.08282,6e-6 -1e-5,177.165353 59.08283,-1e-5 z"
         inkscape:connector-curvature="0" />
    </g>
    <g
       id="g3906"
       transform="translate(-1.6692913e-6,425.69607)">
      <path
         d="m 70.866142,414.56691 70.866138,-70.86614 -70.866138,-70.86615 0,-35.43307 35.433068,0 70.86614,70.86614 70.86615,-70.86614 35.43307,0 0,35.43307 -70.86614,70.86615 70.86614,70.86614 0,35.43307 -35.43307,0 -70.86615,-70.86614 -70.86614,70.86614 -35.433068,0 z m 0.04059,-176.87476 0,212.01723 212.517248,0 0,-212.01723 z"
         style="color:#000000;fill:#b10000;fill-opacity:1;fill-rule:nonzero;stroke:#000000;stroke-width:0.99844146px;stroke-linecap:butt;stroke-linejoin:miter;stroke-miterlimit:4;stroke-opacity:1;stroke-dasharray:none;stroke-dashoffset:0;marker:none;visibility:visible;display:inline;overflow:visible;enable-background:accumulate"
         id="path3902"
         inkscape:connector-curvature="0" />
    </g>
    <g
       transform="translate(212.59842,425.69607)"
       id="g3917">
      <path
         inkscape:connector-curvature="0"
         id="path3919"
         style="color:#000000;fill:#b10000;fill-opacity:1;fill-rule:nonzero;stroke:#000000;stroke-width:0.99844146px;stroke-linecap:butt;stroke-linejoin:miter;stroke-miterlimit:4;stroke-opacity:1;stroke-dasharray:none;stroke-dashoffset:0;marker:none;visibility:visible;display:inline;overflow:visible;enable-background:accumulate"
         d="m 70.866142,414.56691 70.866138,-70.86614 -70.866138,-70.86615 0,-35.43307 35.433068,0 70.86614,70.86614 70.86615,-70.86614 35.43307,0 0,35.43307 -70.86614,70.86615 70.86614,70.86614 0,35.43307 -35.43307,0 -70.86615,-70.86614 -70.86614,70.86614 -35.433068,0 z m 0.04059,-176.87476 0,212.01723 212.517248,0 0,-212.01723 z" />
    </g>
    <text
       xml:space="preserve"
       style="font-size:40px;font-style:normal;font-weight:normal;line-height:125%;letter-spacing:0px;word-spacing:0px;fill:#000000;fill-opacity:1;stroke:none;font-family:Sans"
       x="530.34369"
       y="116.58086"
       id="text3933"
       sodipodi:linespacing="125%"><tspan
         sodipodi:role="line"
         id="tspan3935"
         x="530.34369"
         y="116.58086">x_rel&gt;2/3 &amp;&amp; y_rel&lt;2/3</tspan><tspan
         sodipodi:role="line"
         x="530.34369"
         y="166.58086"
         id="tspan3955">x_rel&lt;2/3 &amp;&amp; y_rel&gt;2/3</tspan></text>
    <g
       id="g3943"
       transform="translate(212.10075,0.0011581)">
      <path
         style="fill:none;stroke:#000000;stroke-width:0.99533474px;stroke-linecap:butt;stroke-linejoin:miter;stroke-opacity:1"
         d="m 70.36379,236.40611 0,-211.605296 211.60788,0 0.49767,211.605296 z"
         id="path3945"
         inkscape:connector-curvature="0"
         sodipodi:nodetypes="ccccc" />
      <path
         id="path3947"
         style="fill:#b10000;fill-opacity:1;stroke:#000000;stroke-width:0.99533474px;stroke-linecap:butt;stroke-linejoin:miter;stroke-opacity:1"
         d="m 70.866142,60.236198 211.607888,0 0.99054,141.732282 -211.607891,0 z M 248.0315,24.803127 l -141.73228,0.993134 -1e-5,211.605289 141.73229,-0.99313 z"
         inkscape:connector-curvature="0"
         sodipodi:nodetypes="cccccccccc" />
    </g>
    <g
       transform="matrix(1.1994372,0,0,1.2,-99.983869,314.18731)"
       id="g3949">
      <path
         inkscape:connector-curvature="0"
         id="path3951"
         d="m 318.39763,201.96848 0,-177.16535 177.66536,0 0,177.16535 z"
         style="fill:none;stroke:#000000;stroke-width:0.83450842px;stroke-linecap:butt;stroke-linejoin:miter;stroke-opacity:1" />
      <path
         inkscape:connector-curvature="0"
         d="m 318.85607,83.441089 177.66536,0 -0.41688,59.055121 -177.66536,0 z m 118.16566,-59.055118 -59.08282,6e-6 -1e-5,177.165353 59.08283,-1e-5 z"
         style="fill:#b10000;fill-opacity:1;stroke:#000000;stroke-width:0.83450842px;stroke-linecap:butt;stroke-linejoin:miter;stroke-opacity:1"
         id="path3953"
         sodipodi:nodetypes="cccccccccc" />
    </g>
    <text
       sodipodi:linespacing="125%"
       id="text3957"
       y="435.47849"
       x="530.34369"
       style="font-size:40px;font-style:normal;font-weight:normal;line-height:125%;letter-spacing:0px;word-spacing:0px;fill:#000000;fill-opacity:1;stroke:none;font-family:Sans"
       xml:space="preserve"><tspan
         y="435.47849"
         x="530.34369"
         id="tspan3959"
         sodipodi:role="line">x_rel&gt;1/3 &amp;&amp; y_rel&lt;1/3</tspan><tspan
         id="tspan3961"
         y="485.47849"
         x="530.34369"
         sodipodi:role="line">x_rel&lt;1/3 &amp;&amp; y_rel&gt;1/3</tspan></text>
    <text
       xml:space="preserve"
       style="font-size:40px;font-style:normal;font-weight:normal;line-height:125%;letter-spacing:0px;word-spacing:0px;fill:#000000;fill-opacity:1;stroke:none;font-family:Sans"
       x="530.57806"
       y="779.37616"
       id="text3963"
       sodipodi:linespacing="125%"><tspan
         sodipodi:role="line"
         x="530.57806"
         y="779.37616"
         id="tspan3967">fabs(x_rel-y_rel)&gt;1/3</tspan></text>
  </g>
</svg>
